<svg enable-background="new 0 0 1600 1200" fill="none" height="1200" viewBox="0 0 1600 1200" width="1600" xmlns="http://www.w3.org/2000/svg"><path d="m1351.35 425.15-233.6-257.5c-5.9-6.511-13.27-11.508-21.5-14.571s-17.08-4.102-25.8-3.029l-666.4 80c-9.754 1.171-19.016 4.932-26.824 10.894-7.808 5.961-13.877 13.905-17.576 23.006l-125.8 309.9c-3.077 7.538-4.411 15.674-3.9 23.8l25.9 451.8h1090.8l18.9-585.6c.51-14.261-4.58-28.155-14.2-38.7z" fill="#f4f4f4"/><path d="m726.45 215.88v391.6c.008 2.411.969 4.721 2.674 6.426s4.015 2.666 6.426 2.674h567c2.41-.008 4.72-.969 6.43-2.674 1.7-1.705 2.66-4.015 2.67-6.426v-391.6c-.01-2.411-.97-4.721-2.67-6.426-1.71-1.704-4.02-2.666-6.43-2.674h-567c-1.196-.004-2.381.229-3.487.685s-2.11 1.126-2.956 1.972-1.516 1.85-1.972 2.956-.689 2.291-.685 3.487z" fill="#4d61fc"/><path d="m726.45 215.88v391.6c.008 2.411.969 4.721 2.674 6.426s4.015 2.666 6.426 2.674h567c2.41-.008 4.72-.969 6.43-2.674 1.7-1.705 2.66-4.015 2.67-6.426v-391.6c-.01-2.411-.97-4.721-2.67-6.426-1.71-1.704-4.02-2.666-6.43-2.674h-567c-1.196-.004-2.381.229-3.487.685s-2.11 1.126-2.956 1.972-1.516 1.85-1.972 2.956-.689 2.291-.685 3.487z" fill="#fff" opacity=".3"/><path d="m719.55 215.88v391.6c.008 2.411.969 4.721 2.674 6.426s4.015 2.666 6.426 2.674h567c2.41-.008 4.72-.969 6.43-2.674 1.7-1.705 2.66-4.015 2.67-6.426v-391.6c-.01-2.411-.97-4.721-2.67-6.426-1.71-1.705-4.02-2.666-6.43-2.674h-567c-2.411.008-4.721.969-6.426 2.674s-2.666 4.015-2.674 6.426z" fill="#4d61fc"/><path d="m719.55 215.88v391.6c.008 2.411.969 4.721 2.674 6.426s4.015 2.666 6.426 2.674h567c2.41-.008 4.72-.969 6.43-2.674 1.7-1.705 2.66-4.015 2.67-6.426v-391.6c-.01-2.411-.97-4.721-2.67-6.426-1.71-1.705-4.02-2.666-6.43-2.674h-567c-2.411.008-4.721.969-6.426 2.674s-2.666 4.015-2.674 6.426z" fill="#fff" opacity=".7"/><path d="m741.25 231.88c3.148 0 5.7-2.552 5.7-5.7s-2.552-5.7-5.7-5.7-5.7 2.552-5.7 5.7 2.552 5.7 5.7 5.7z" fill="#4d61fc"/><path d="m761.65 231.88c3.148 0 5.7-2.552 5.7-5.7s-2.552-5.7-5.7-5.7-5.7 2.552-5.7 5.7 2.552 5.7 5.7 5.7z" fill="#61656d"/><path d="m781.95 231.88c3.148 0 5.7-2.552 5.7-5.7s-2.552-5.7-5.7-5.7-5.7 2.552-5.7 5.7 2.552 5.7 5.7 5.7z" fill="#21252b"/><path d="m1214.35 294.08h-316c-1.034 0-2.026-.411-2.758-1.143-.731-.731-1.142-1.723-1.142-2.757v-18.6c0-1.035.411-2.027 1.142-2.758.732-.731 1.724-1.142 2.758-1.142h316c.51 0 1.02.101 1.49.297.48.196.91.483 1.27.845s.65.792.84 1.265c.2.473.3.981.3 1.493v18.6c.02.516-.07 1.031-.26 1.512-.19.48-.48.917-.85 1.283-.36.365-.8.652-1.28.842s-.99.279-1.51.263z" fill="#4d61fc" opacity=".2"/><path d="m1205.55 277.18c-.95-.916-2.23-1.427-3.55-1.427s-2.59.511-3.55 1.427c-.82.906-1.27 2.079-1.29 3.299-.01 1.22.43 2.402 1.22 3.324.8.922 1.91 1.52 3.12 1.682 1.21.161 2.44-.125 3.45-.805l2.8 2.8 1-1-2.8-2.8c.74-.945 1.11-2.128 1.04-3.326-.08-1.199-.59-2.328-1.44-3.174z" fill="#4d61fc"/><path d="m1204.65 283.28c-.7.674-1.63 1.052-2.6 1.052s-1.9-.378-2.6-1.052c-.63-.686-.96-1.587-.94-2.516s.4-1.813 1.05-2.47c.66-.657 1.54-1.036 2.47-1.057s1.83.317 2.52.943c.35.323.63.713.83 1.148.19.434.3.904.31 1.381.01.476-.08.95-.26 1.392s-.44.843-.78 1.179z" fill="#fff" opacity=".7"/><path d="m1264.95 276.58h-14.8v1.5h14.8z" fill="#4d61fc"/><path d="m1264.95 281.78h-14.8v1.5h14.8z" fill="#4d61fc"/><path d="m1264.95 286.98h-14.8v1.5h14.8z" fill="#4d61fc"/><path d="m908.35 578.58h-143.1c-1.564-.002-3.063-.625-4.169-1.731s-1.729-2.605-1.731-4.169v-244.5c.002-1.564.625-3.063 1.731-4.169s2.605-1.728 4.169-1.731h143.2c1.564.003 3.063.625 4.169 1.731s1.728 2.605 1.731 4.169v244.6c-.052 1.557-.707 3.032-1.827 4.114-1.12 1.083-2.616 1.687-4.173 1.686z" fill="#fff"/><path d="m836.75 432.68c24.632 0 44.6-19.968 44.6-44.6 0-24.631-19.968-44.6-44.6-44.6s-44.6 19.969-44.6 44.6c0 24.632 19.968 44.6 44.6 44.6z" fill="#4d61fc"/><path d="m848.78 431h-.15c-6.494 1.783-13.306 2.08-19.93.87-1.3-.23-2.58-.52-3.83-.87l-1.42-.41c-10.076-3.149-18.708-9.769-24.363-18.683-5.655-8.915-7.965-19.545-6.519-30.003 1.445-10.457 6.551-20.062 14.412-27.109 7.86-7.047 17.964-11.077 28.517-11.376 10.552-.298 20.868 3.155 29.114 9.746 8.246 6.592 13.887 15.893 15.921 26.252s.328 21.103-4.814 30.323c-5.142 9.219-13.386 16.317-23.268 20.03-.51.19-1 .38-1.54.55l-.89.29z" fill="#fff" opacity=".3"/><path d="m850 430.69.89-.29c.52-.17 1-.36 1.54-.55-.3-2.053-.58-4.01-.84-5.87-.1-.75-.21-1.49-.31-2.2-.35-2.61-.67-5-.94-7.1-.09-.77-.18-1.5-.26-2.2-.37-3.08-.61-5.51-.7-7.15 0-.05 0-.1 0-.15l-3.1-.9h-.09l-22.59-.3-2.86.78-4.14 1.12c.6 1.75 1.34 3.95 2.17 6.6.22.7.44 1.43.67 2.2.64 2.12 1.31 4.49 2 7.1l.55 2.2c.513 2.087 1.02 4.317 1.52 6.69l1.42.41c1.25.35 2.53.64 3.83.87 6.624 1.211 13.436.913 19.93-.87h.15z" fill="#fff"/><path d="m846.05 377.28s-20.1-12.6-20.8 2.8l-.3 4-1.4 20.2c-.003.541.173 1.069.5 1.5l11.6 7.9c.168.108.368.157.567.139s.387-.102.533-.239l8.6-7.4c.288-.241.513-.55.652-.899.14-.349.191-.727.148-1.101l-1.3-12c.248-1.184.382-2.39.4-3.6.2-5.8.8-11.3.8-11.3z" fill="#fc9d9d"/><path d="m847.75 378.28c3.756 0 6.8-3.045 6.8-6.8 0-3.756-3.044-6.8-6.8-6.8-3.755 0-6.8 3.044-6.8 6.8 0 3.755 3.045 6.8 6.8 6.8z" fill="#21252b"/><path d="m848.25 366.48s7.1 29.9-8.2 31.9c-13.3 1.8-14.8-18.9-14.8-18.9l.6-13.4z" fill="#fc9d9d"/><path d="m847.35 368.38-13.6 1c-.403.025-.797.131-1.159.312-.361.181-.682.433-.944.741-.261.309-.458.666-.577 1.053-.12.386-.161.792-.12 1.194.042.402.001.808-.119 1.194-.119.386-.316.744-.577 1.053-.262.308-.583.56-.944.741-.362.181-.756.287-1.159.312-.114.002-.225.028-.328.075-.102.047-.194.116-.269.2-.075.085-.132.184-.167.291-.035.108-.048.221-.037.334l.2 3c.009.171-.048.339-.16.47-.112.13-.269.212-.44.23-.3 0-.7-.2-.7-.5l-.599-2.8-.601-.9-3.2 2s-5.199-8-2.699-15.2c1.4-4.1 5.5-5.6 7.5-5.9.31-.038.608-.148.869-.321.26-.174.476-.407.631-.679.708-1.193 1.745-2.157 2.986-2.777 1.241-.621 2.634-.872 4.014-.723 1.197-.002 2.376.299 3.425.876s1.935 1.411 2.575 2.424c.267.42.676.731 1.152.878.477.146.99.119 1.447-.078.907-.422 1.905-.606 2.902-.536s1.96.392 2.798.936c4.4 2.6 2.6 10.3-2.1 11.1z" fill="#21252b"/><path d="m824.85 385.08c.704.057 1.406-.119 2-.5l-2.2 3.3z" fill="#000" opacity=".15"/><path d="m825.55 377.18c-.128-.377-.338-.722-.614-1.009-.277-.287-.613-.511-.985-.654s-.771-.202-1.169-.174c-.397.028-.784.143-1.132.337-3.3 1.5-2.7 9.1 3 9.5 3 .2 2.4-1.5 1.9-3.8z" fill="#fc9d9d"/><path d="m821.45 377.58c.223-.177.481-.304.757-.373s.563-.078.843-.027c.536.172.996.526 1.3 1 .362.643.568 1.362.6 2.1l.1.7c0 .2-.1.4-.3.4s-.4-.1-.4-.3l-.1-.7c-.016-.601-.189-1.187-.5-1.7-.3-.4-.5-.7-.8-.7-.194-.041-.395-.035-.586.017-.192.052-.368.149-.514.283-.2.1-.4.1-.5-.1-.043-.099-.056-.209-.039-.315.018-.106.066-.205.139-.285z" fill="#000" opacity=".3"/><path d="m847.45 369-1.6.2c-.08 0-.156-.031-.212-.088-.057-.056-.088-.132-.088-.212 0-.079.031-.156.088-.212.056-.056.132-.088.212-.088l1.6-.2c.2 0 .4-.1.6-.1.624-.223 1.201-.562 1.7-1 .039-.027.083-.047.13-.057.046-.01.095-.01.141-.001.047.01.092.028.131.056.039.027.073.062.098.102.027.031.046.067.055.107.01.039.01.08 0 .12-.01.039-.029.075-.056.106-.027.03-.061.053-.099.067-.568.469-1.211.841-1.9 1.1-.258.083-.53.116-.8.1z" fill="#fc9d9d"/><path d="m845.85 400.78-.5-4.8c-1.241 1.053-2.706 1.807-4.283 2.206-1.578.398-3.225.431-4.817.094-2.082-.553-3.958-1.7-5.4-3.3-.026-.026-.057-.047-.092-.061-.034-.014-.071-.022-.108-.022s-.074.008-.108.022c-.035.014-.066.035-.092.061-.026.027-.047.058-.061.092-.015.034-.022.071-.022.108s.007.074.022.109c.014.034.035.065.061.091 1.827 2.087 4.35 3.438 7.1 3.8 1.2.821 2.556 1.386 3.984 1.662 1.428.275 2.897.254 4.316-.062z" fill="#000" opacity=".15"/><path d="m841.15 392.28c-1.3.1-1.9.2-1.9.2-.106 0-.208-.042-.283-.117s-.117-.176-.117-.283c0-.106.042-.207.117-.282s.177-.118.283-.118c.604-.022 1.205-.089 1.8-.2.2 0 .33 0 .4.4.012.047.013.096.004.143-.01.047-.029.091-.058.13-.029.038-.066.069-.109.092-.042.022-.089.034-.137.035z" fill="#000" opacity=".3"/><path d="m841.85 390.48c-3.4.5-4.9-1.3-5.4-2.2-.026-.039-.044-.083-.053-.13-.01-.046-.01-.094 0-.14.009-.047.027-.091.054-.13.026-.04.06-.073.099-.1.04-.026.084-.044.13-.053.047-.01.095-.01.141 0 .046.009.09.027.13.054.039.026.073.06.099.099.5.9 2.2 2.8 6.2 1.5.046-.019.096-.03.146-.03.05-.001.099.008.146.027.046.018.088.046.124.081s.065.076.084.122c.02.046.03.096.031.146s-.009.099-.027.146c-.019.046-.046.088-.081.124s-.077.065-.123.084c-.544.217-1.117.352-1.7.4z" fill="#000" opacity=".3"/><path d="m837.25 381.68c.663 0 1.2-.537 1.2-1.2 0-.662-.537-1.2-1.2-1.2s-1.2.538-1.2 1.2c0 .663.537 1.2 1.2 1.2z" fill="#21252b"/><path d="m837.75 380.38c.166 0 .3-.134.3-.3 0-.165-.134-.3-.3-.3s-.3.135-.3.3c0 .166.134.3.3.3z" fill="#fff"/><path d="m846.95 381.68c.663 0 1.2-.537 1.2-1.2 0-.662-.537-1.2-1.2-1.2s-1.2.538-1.2 1.2c0 .663.537 1.2 1.2 1.2z" fill="#21252b"/><path d="m847.45 380.38c.166 0 .3-.134.3-.3 0-.165-.134-.3-.3-.3-.165 0-.3.135-.3.3 0 .166.135.3.3.3z" fill="#fff"/><path d="m842.75 387.48-1.6.1c-.2 0-.4-.1-.4-.3s.1-.4.3-.4l1.6-.1c.099-.007.195-.033.283-.076.089-.044.168-.105.233-.179.065-.075.114-.161.146-.254.032-.094.045-.193.038-.291-.007-.099-.032-.195-.076-.283-.044-.089-.105-.168-.179-.233s-.161-.115-.254-.146c-.094-.032-.193-.045-.291-.038-.2 0-.4-.1-.4-.3s.1-.4.3-.4c.384-.039.769.075 1.069.319s.491.596.531.981c.036.193.03.391-.018.581-.048.191-.137.368-.261.52-.124.153-.279.276-.455.362-.177.086-.37.133-.566.137z" fill="#000" opacity=".3"/><path d="m850.45 377.28h-16.8c-.237-.001-.472.044-.691.134s-.418.223-.585.39c-.167.168-.3.366-.39.585s-.136.454-.134.691v1.4c0 1.273.505 2.494 1.406 3.394.9.9 2.121 1.406 3.394 1.406s2.494-.506 3.394-1.406 1.406-2.121 1.406-3.394v-1.4c.01-.201-.02-.402-.089-.591-.068-.189-.174-.362-.311-.509h1.95c-.235.321-.374.703-.4 1.1v1.4c0 1.273.505 2.494 1.406 3.394.9.9 2.121 1.406 3.394 1.406s2.494-.506 3.394-1.406 1.406-2.121 1.406-3.394v-1.4c.022-.238-.008-.477-.087-.702-.079-.226-.207-.431-.373-.602-.167-.171-.368-.304-.591-.39-.222-.085-.461-.122-.699-.106z" stroke="#21252b" stroke-miterlimit="10"/><path d="m848.78 431c-.12-2.48-.22-4.84-.32-7.06 0-.75-.06-1.49-.09-2.2-.11-2.62-.2-5-.28-7.1 0-.77-.06-1.51-.09-2.2-.06-1.91-.12-3.51-.16-4.74.005-.064.005-.127 0-.19-.05-1.61-.07-2.56-.08-2.74l.94 7.67.27 2.2.86 7.1.27 2.2.78 6.42-.89.29z" fill="#000" opacity=".15"/><g fill="#4d61fc" opacity=".15"><path d="m857.25 412.48h-19l-1.4 1.2c-.162.145-.367.233-.584.251-.216.018-.433-.035-.616-.151l-1.9-1.3h-20.9v2.2h44.4z" opacity=".15"/><path d="m857.35 421.78h-44.5v2.2h44.5z" opacity=".15"/><path d="m848.629 431.08c-6.494 1.783-13.305 2.08-19.93.87-1.3-.23-2.58-.52-3.83-.87z" opacity=".15"/></g><path d="m828.7 432c-1.3-.23-2.58-.52-3.83-.87l-1.42-.41c-10.955-3.441-20.17-10.959-25.74-21l23-4.91 1.76-.38c.62 1.84 1.4 4.58 2.26 8.1.18.7.35 1.43.53 2.2.5 2.13 1 4.51 1.55 7.1.16.71.3 1.45.45 2.2.44 2.226.877 4.593 1.31 7.1.047.26.09.55.13.87z" fill="#21252b"/><path d="m872.08 415.3c-5.076 6.585-11.888 11.624-19.67 14.55-.51.19-1 .38-1.54.55l-.89.29c-.24-2.36-.47-4.6-.67-6.71-.08-.75-.15-1.48-.22-2.2-.25-2.6-.47-5-.66-7.1-.07-.77-.13-1.5-.19-2.2-.16-1.83-.29-3.42-.4-4.74.005-.063.005-.127 0-.19-.08-1.13-.14-2.06-.18-2.77h.1l1.61.52 15.79 5.05c2.732.956 5.133 2.674 6.92 4.95z" fill="#21252b"/><path d="m896.85 560.68h-41.8c-.531 0-1.039-.21-1.414-.586-.375-.375-.586-.883-.586-1.414v-10.4c0-.53.211-1.039.586-1.414s.883-.586 1.414-.586h41.8c.53 0 1.039.211 1.414.586s.586.884.586 1.414v10.4c.008.265-.038.529-.135.775-.098.247-.245.471-.432.658-.188.187-.412.334-.658.432s-.51.144-.775.135z" fill="#4d61fc"/><path d="m885.65 555.08h-19.4c-.395-.01-.77-.171-1.049-.45-.28-.28-.441-.655-.451-1.05.01-.395.171-.77.451-1.049.279-.28.654-.441 1.049-.451h19.4c.395.01.77.171 1.049.451.28.279.441.654.451 1.049-.01.395-.171.77-.451 1.05-.279.279-.654.44-1.049.45z" fill="#fff"/><path d="m779.75 549.28 1 2.1c.114.124.25.226.4.3l2.3.3c.084.016.163.054.229.109s.116.127.146.207.039.167.026.252-.048.165-.101.232l-1.7 1.6c-.1.1-.2.3-.1.4l.4 2.3c.024.091.02.186-.012.274s-.089.164-.165.218-.167.084-.26.086c-.094.001-.185-.026-.263-.078l-2.1-1.1c-.055-.049-.126-.076-.2-.076s-.145.027-.2.076l-2.1 1.1c-.3.2-.7-.1-.7-.5l.4-2.3c0-.2 0-.3-.1-.4l-1.7-1.6c-.3-.3-.1-.7.3-.8l2.3-.3c.2 0 .3-.1.4-.3l1-2.1c.1-.4.6-.4.8 0z" fill="#4d61fc"/><path d="m791.45 549.28 1 2.1c.114.124.25.226.4.3l2.3.3c.085.016.163.054.229.109s.116.127.146.207.039.167.026.252-.048.165-.101.232l-1.7 1.6c-.1.1-.2.3-.1.4l.4 2.3c.024.091.02.186-.012.274s-.089.164-.165.218-.167.084-.26.086c-.093.001-.185-.026-.263-.078l-2.1-1.1c-.055-.049-.126-.076-.2-.076s-.145.027-.2.076l-2.1 1.1c-.3.2-.7-.1-.7-.5l.4-2.3c0-.2 0-.3-.1-.4l-1.7-1.6c-.3-.3-.1-.7.3-.8l2.3-.3c.2 0 .3-.1.4-.3l1-2.1c.1-.4.6-.4.8 0z" fill="#4d61fc"/><path d="m803.15 549.28 1 2.1c.114.124.249.226.4.3l2.3.3c.084.016.163.054.228.109.066.055.116.127.146.207.031.08.04.167.026.252-.013.085-.047.165-.1.232l-1.7 1.6c-.1.1-.2.3-.1.4l.4 2.3c.023.091.019.186-.013.274-.031.088-.089.164-.165.218s-.167.084-.26.086c-.093.001-.185-.026-.262-.078l-2.1-1.1c-.055-.049-.127-.076-.2-.076-.074 0-.145.027-.2.076l-2.1 1.1c-.3.2-.7-.1-.7-.5l.4-2.3c0-.2 0-.3-.1-.4l-1.7-1.6c-.3-.3-.1-.7.3-.8l2.3-.3c.2 0 .3-.1.4-.3l1-2.1c.1-.4.65-.4.8 0z" fill="#4d61fc"/><path d="m814.85 549.28 1 2.1c.114.124.249.226.4.3l2.3.3c.084.016.163.054.228.109.066.055.117.127.147.207s.039.167.026.252c-.014.085-.048.165-.101.232l-1.7 1.6c-.1.1-.2.3-.1.4l.4 2.3c.024.091.019.186-.012.274-.032.088-.09.164-.166.218s-.166.084-.26.086c-.093.001-.185-.026-.262-.078l-2.1-1.1c-.055-.049-.126-.076-.2-.076s-.145.027-.2.076l-2.1 1.1c-.3.2-.7-.1-.7-.5l.4-2.3c0-.2 0-.3-.1-.4l-1.7-1.6c-.3-.3-.1-.7.3-.8l2.3-.3c.2 0 .3-.1.4-.3l1-2.1c.1-.4.6-.4.8 0z" fill="#4d61fc"/><path d="m826.55 549.28 1 2.1c.114.124.249.226.4.3l2.3.3c.084.016.163.054.229.109.065.055.116.127.146.207s.039.167.026.252-.048.165-.101.232l-1.7 1.6c-.1.1-.2.3-.1.4l.4 2.3c.024.091.019.186-.012.274-.032.088-.09.164-.165.218-.076.054-.167.084-.26.086-.094.001-.185-.026-.263-.078l-2.1-1.1c-.055-.049-.126-.076-.2-.076s-.145.027-.2.076l-2.1 1.1c-.3.2-.7-.1-.7-.5l.4-2.3c0-.2 0-.3-.1-.4l-1.7-1.6c-.3-.3-.1-.7.3-.8l2.3-.3c.2 0 .3-.1.4-.3l1-2.1c.1-.4.6-.4.8 0z" fill="#b1b5ba"/><path d="m882.75 471h-93.1c-.344-.006-.671-.144-.914-.387s-.381-.57-.386-.913v-4.3c.005-.344.143-.671.386-.914s.57-.381.914-.386h93.1c.343.005.67.143.913.386s.381.57.387.914v4.3c-.006.343-.144.67-.387.913s-.57.381-.913.387z" fill="#3f4249"/><path d="m889.25 489.18h-105c-.237.001-.471-.044-.69-.134s-.418-.223-.586-.39c-.167-.168-.3-.366-.389-.585-.09-.219-.136-.454-.135-.691-.001-.237.045-.471.135-.69.089-.219.222-.418.389-.586.168-.167.367-.3.586-.39s.453-.135.69-.134h105c.237-.001.472.044.691.134s.418.223.585.39c.167.168.3.367.39.586s.136.453.134.69c.002.237-.044.472-.134.691s-.223.417-.39.585c-.167.167-.366.3-.585.39s-.454.135-.691.134z" fill="#b1b5ba"/><path d="m889.25 505.78h-105c-.237.001-.471-.045-.69-.135s-.418-.222-.586-.39c-.167-.167-.3-.366-.389-.585-.09-.219-.136-.454-.135-.69-.001-.237.045-.472.135-.691.089-.219.222-.418.389-.585.168-.167.367-.3.586-.39s.453-.136.69-.134h105c.237-.002.472.044.691.134s.418.223.585.39.3.366.39.585.136.454.134.691c.002.236-.044.471-.134.69s-.223.418-.39.585c-.167.168-.366.3-.585.39s-.454.136-.691.135z" fill="#b1b5ba"/><path d="m865.65 522.38h-57.65c-.237.002-.471-.044-.69-.134s-.418-.223-.586-.39c-.167-.167-.3-.366-.389-.585-.09-.219-.136-.454-.135-.691-.001-.236.045-.471.135-.69.089-.219.222-.418.389-.585.168-.168.367-.3.586-.39s.453-.136.69-.135h57.7c.237-.001.472.045.691.135s.418.222.585.39c.167.167.3.366.39.585s.136.454.134.69c.002.241-.045.48-.139.702-.093.223-.23.424-.402.592-.173.168-.378.3-.603.387s-.465.127-.706.119z" fill="#b1b5ba"/><path d="m742.95 456.68c3.424 0 6.2-2.776 6.2-6.2s-2.776-6.2-6.2-6.2-6.2 2.776-6.2 6.2 2.776 6.2 6.2 6.2z" fill="#fff" opacity=".7"/><path d="m743.65 453.48 1-1-2.1-2 2.1-2.1-1-1-3.1 3.1z" fill="#4d61fc"/><path d="m1282.35 456.68c3.42 0 6.2-2.776 6.2-6.2s-2.78-6.2-6.2-6.2-6.2 2.776-6.2 6.2 2.78 6.2 6.2 6.2z" fill="#fff" opacity=".7"/><path d="m1281.65 453.48-1-1 2.1-2-2.1-2.1 1-1 3.1 3.1z" fill="#4d61fc"/><path d="m836.55 290.18h-73.4c-.499 0-.994-.099-1.455-.29s-.879-.47-1.232-.823-.633-.772-.824-1.233-.289-.955-.289-1.454v-10.9c0-.499.098-.993.289-1.454.191-.462.471-.88.824-1.233s.771-.633 1.232-.824.956-.289 1.455-.289h73.4c.499 0 .993.098 1.454.289s.88.471 1.233.824c.352.353.632.771.823 1.233.191.461.29.955.29 1.454v10.9c0 .499-.099.993-.29 1.454s-.471.88-.823 1.233c-.353.353-.772.632-1.233.823s-.955.29-1.454.29z" fill="#4d61fc"/><path d="m1294.25 241.58h-564.3v1.4h564.3z" fill="#4d61fc" opacity=".04"/><path d="m1083.75 578.58h-143.2c-1.564-.002-3.063-.625-4.169-1.731s-1.728-2.605-1.731-4.169v-244.5c.003-1.564.625-3.063 1.731-4.169s2.605-1.728 4.169-1.731h143.2c1.56.003 3.06.625 4.17 1.731s1.73 2.605 1.73 4.169v244.6c-.05 1.54-.69 3-1.79 4.08-1.1 1.079-2.57 1.695-4.11 1.72z" fill="#fff"/><path d="m1058.05 471h-93.05c-.343-.006-.671-.144-.913-.387-.243-.243-.382-.57-.387-.913v-4.3c.005-.344.144-.671.387-.914.242-.243.57-.381.913-.386h93.1c.34.005.67.143.91.386.25.243.39.57.39.914v4.3c0 .174-.04.346-.11.506-.07.159-.17.304-.29.425-.13.121-.28.215-.44.279-.16.063-.34.094-.51.09z" fill="#3f4249"/><path d="m1064.55 489.18h-105c-.237.001-.471-.044-.69-.134s-.418-.223-.586-.39c-.167-.168-.3-.366-.39-.585s-.135-.454-.134-.691c-.001-.237.044-.471.134-.69s.223-.418.39-.586c.168-.167.367-.3.586-.39s.453-.135.69-.134h105c.24-.001.47.044.69.134s.42.223.59.39c.16.168.3.367.39.586s.13.453.13.69c.02.241-.02.483-.1.71-.08.226-.22.432-.39.603s-.37.303-.6.387-.47.118-.71.1z" fill="#b1b5ba"/><path d="m1064.55 505.78h-105c-.237.001-.471-.045-.69-.135s-.418-.222-.586-.39c-.167-.167-.3-.366-.39-.585s-.135-.454-.134-.69c-.001-.237.044-.472.134-.691s.223-.418.39-.585c.168-.167.367-.3.586-.39s.453-.136.69-.134h105c.24-.002.47.044.69.134s.42.223.59.39c.16.167.3.366.39.585s.13.454.13.691c.02.241-.02.483-.1.709-.08.227-.22.432-.39.603s-.37.303-.6.387-.47.119-.71.101z" fill="#b1b5ba"/><path d="m1041 522.38h-57.7c-.237.002-.471-.044-.69-.134s-.418-.223-.586-.39c-.167-.167-.3-.366-.39-.585s-.135-.454-.134-.691c-.001-.236.044-.471.134-.69s.223-.418.39-.585c.168-.168.367-.3.586-.39s.453-.136.69-.135h57.7c.24-.001.47.045.69.135s.42.222.59.39c.16.167.3.366.39.585s.13.454.13.69c.01.239-.03.478-.12.701-.08.222-.22.425-.39.594-.16.169-.37.301-.59.388s-.46.127-.7.117z" fill="#b1b5ba"/><path d="m1056.75 388.08c0 9.225-2.86 18.224-8.19 25.755s-12.86 13.225-21.56 16.295l-.71.25c-8.95 3-18.62 3.085-27.618.241-9-2.843-16.867-8.467-22.468-16.064s-8.648-16.774-8.703-26.212 2.884-18.651 8.396-26.313c5.512-7.661 13.311-13.377 22.277-16.326 8.966-2.948 18.636-2.977 27.616-.082 8.99 2.895 16.82 8.565 22.38 16.194 5.55 7.629 8.55 16.824 8.55 26.262z" fill="#b1b5ba"/><path d="m1029.75 410.38c-.09.37-.18.75-.27 1.15s-.19.87-.28 1.33c-1.04 5.713-1.76 11.478-2.17 17.27l-.71.25c-8.8 2.938-18.3 3.063-27.171.357-8.875-2.706-16.686-8.108-22.349-15.457 1.26-.851 2.667-1.461 4.15-1.8l16.9-3.3 2.31-.49h.1l.23-.05 1.64-.34h4.67l15.11.12h4.36.25l.93.26 1.57.44.61.18z" fill="#4d61fc"/><path d="m1017.9 396.435c.71-8.088-5.45-15.234-13.76-15.963-8.304-.728-15.613 5.238-16.322 13.326-.709 8.087 5.451 15.234 13.762 15.962 8.3.728 15.61-5.238 16.32-13.325z" fill="#21252b"/><path d="m1019.01 362.576c3.38-3.256 3.48-8.637.22-12.019-3.25-3.382-8.63-3.484-12.01-.228-3.39 3.255-3.49 8.636-.23 12.018 3.25 3.382 8.63 3.485 12.02.229z" fill="#21252b"/><path d="m1004.85 358.58c.43 1.698 1.37 3.223 2.7 4.364s2.98 1.842 4.72 2.006c1.74.165 3.49-.215 5.01-1.087 1.52-.873 2.73-2.194 3.47-3.783.08-.273.18-.54.3-.8-3.3-2.2-10.5-4-16.2-.7z" fill="#4d61fc"/><path d="m1020.35 395.38c-.4 9.1-2 14.1 3 14.3 8.1.4 15-6.7 15.4-15.9s-5.9-16.8-14-17.1c-2.1 7.8-4 9.6-4.4 18.7z" fill="#21252b"/><path d="m1000.15 409.68 1.5 1.2c3.45 2.892 7.82 4.468 12.32 4.45s8.85-1.63 12.28-4.55l1.2-1-4.2-1.1c-.43-.11-.82-.352-1.11-.693-.28-.341-.46-.763-.49-1.207l-1.7-22.4-14 2.7-1.4 20c-.03.444-.21.866-.49 1.207-.29.341-.68.583-1.11.693z" fill="#fc9d9d"/><path d="m1013.45 402c-2.65-.002-5.19-1.02-7.11-2.844-1.91-1.823-3.06-4.314-3.19-6.956l-1.3-21.4 23.6.2-1.6 21.4c-.16 2.631-1.34 5.098-3.27 6.886-1.94 1.788-4.49 2.76-7.13 2.714z" fill="#fc9d9d"/><path d="m1013.45 402c-2.65-.002-5.19-1.02-7.11-2.844-1.91-1.823-3.06-4.314-3.19-6.956l-1.3-21.4 23.6.2-1.6 21.4c-.16 2.631-1.34 5.098-3.27 6.886-1.94 1.788-4.49 2.76-7.13 2.714z" fill="#fc9d9d"/><path d="m1008.85 386.08c.66 0 1.2-.538 1.2-1.2 0-.663-.54-1.2-1.2-1.2s-1.2.537-1.2 1.2c0 .662.54 1.2 1.2 1.2z" fill="#21252b"/><path d="m1008.35 384.78c.17 0 .3-.135.3-.3 0-.166-.13-.3-.3-.3s-.3.134-.3.3c0 .165.13.3.3.3z" fill="#fff"/><path d="m1018.45 383.68c.24 0 .47.071.67.203.19.132.35.319.44.538s.11.461.07.694c-.05.232-.16.446-.33.614s-.38.282-.62.328c-.23.047-.47.023-.69-.068s-.41-.245-.54-.442-.2-.429-.2-.667c-.01-.159.02-.317.08-.465s.15-.283.26-.396c.11-.112.25-.2.39-.259.15-.058.31-.085.47-.08z" fill="#21252b"/><path d="m1017.85 384.78c.17 0 .3-.135.3-.3 0-.166-.13-.3-.3-.3s-.3.134-.3.3c0 .165.13.3.3.3z" fill="#fff"/><path d="m1013.75 391.78h-1.1c-.11 0-.21-.042-.28-.117-.08-.075-.12-.177-.12-.283s.04-.208.12-.283c.07-.075.17-.117.28-.117h1.1c.2.013.39-.053.54-.185.16-.131.25-.316.26-.515s-.05-.395-.18-.545c-.14-.15-.32-.242-.52-.255-.11 0-.21-.042-.28-.117-.08-.075-.12-.177-.12-.283s.04-.208.12-.283c.07-.075.17-.117.28-.117.39.01.77.171 1.05.45s.44.655.45 1.05c-.01.421-.18.822-.48 1.12s-.7.47-1.12.48z" fill="#000" opacity=".09"/><path d="m993.85 383.48c1.8-1.3 1.1-3.7 1.1-3.7-.314-1.076-.515-2.182-.6-3.3-.07-1.993.649-3.933 2-5.4.415-.473.661-1.071.7-1.7 1.1-11.6 18.1-14.2 26.6-7.2 5.1 4.3 6.3 9 5.9 13.5-.08.593.02 1.195.29 1.729.27.535.69.977 1.21 1.271l-2.2.9c-.9 3.3-2.5 4.8-3.3 7.2-1.8-1.2-1.4-6.5-1.4-6.5-5-.6-5-6.4-5-6.4-4.6 9.7-16.6 8.8-16.6 8.8l-.7 2.7s-4.7-1-5.7-2.7l-1.9 1.3z" fill="#21252b"/><path d="m1024.15 389.08c1.12-.09 2.16-.588 2.94-1.4.77-.811 1.22-1.879 1.26-3 .2-4-4.8-3.9-4.8.1l.2 4.4z" fill="#fc9d9d"/><path d="m1025 383.78c.06-.212.16-.409.3-.581s.31-.314.5-.419c.4-.112.82-.076 1.2.1.1.1.2.3.1.4s-.1.1-.2.2h-.2c-.3-.1-.5-.2-.7-.1-.1.067-.19.156-.26.259s-.12.219-.14.341c-.12.356-.18.726-.2 1.1 0 .04 0 .081-.01.12-.02.038-.04.073-.07.102s-.06.051-.1.065c-.04.013-.08.017-.12.013-.08-.005-.15-.038-.21-.094-.05-.055-.09-.128-.09-.206.02-.44.08-.876.2-1.3z" fill="#000" opacity=".3"/><path d="m1025.28 388.322c.33-.007.59-.371.59-.813-.01-.442-.29-.794-.62-.787-.33.008-.59.371-.58.813s.28.794.61.787z" fill="#4d61fc"/><path d="m1025.05 388.18c.4 0 .6-.4.6-.9.02-.173-.02-.346-.1-.5.1.068.17.158.23.263.05.104.07.22.07.337 0 .4-.3.8-.6.8-.05.007-.11.001-.16-.016s-.1-.046-.14-.084c.05.1.05.1.1.1z" fill="#000" opacity=".15"/><path d="m1002.75 389.08c-1.12-.09-2.16-.588-2.939-1.4-.774-.811-1.223-1.879-1.261-3-.2-4 4.8-3.9 4.8.1l-.2 4.4z" fill="#fc9d9d"/><path d="m1002.05 383.78c-.16-.409-.44-.759-.8-1-.4-.117-.83-.082-1.2.1-.1.1-.2.3-.1.4s.1.1.2.2h.2c.3-.1.5-.2.7-.1s.3.3.5.6c.11.356.18.726.2 1.1-.01.04 0 .081.01.12.02.038.04.074.07.102.03.029.06.051.1.065.04.013.08.017.12.013.08-.005.15-.038.21-.094.05-.055.08-.128.09-.206-.1-.4-.2-.9-.3-1.3z" fill="#000" opacity=".3"/><path d="m1002.33 387.298c.01-.441-.25-.805-.59-.812-.33-.008-.6.345-.61.786-.01.442.25.806.58.813s.61-.345.62-.787z" fill="#4d61fc"/><path d="m1002 388.18c-.4 0-.6-.4-.6-.9-.02-.173.02-.346.1-.5-.1.068-.17.158-.23.263-.05.104-.07.22-.07.337 0 .4.3.8.6.8.05.007.11.001.16-.016s.1-.046.14-.084c0 .027-.01.052-.03.071s-.04.029-.07.029z" fill="#000" opacity=".15"/><path d="m1016.15 393.68c.2 0 .3.2.2.3-.29.599-.75 1.105-1.31 1.459-.57.353-1.22.541-1.89.541-.66-.014-1.31-.207-1.88-.559-.56-.352-1.02-.85-1.32-1.441-.1-.1 0-.3.2-.3z" fill="#fff"/><path d="m1018.85 381.18c-.74.068-1.46.301-2.1.682-.64.38-1.19.899-1.6 1.518-1.01-.343-2.11-.308-3.1.1-.49-.764-1.17-1.382-1.98-1.787s-1.72-.582-2.62-.513c-.99.084-1.93.46-2.7 1.079-.78.62-1.35 1.456-1.65 2.402-.29.945-.3 1.958-.02 2.909.27.952.83 1.799 1.59 2.433.76.635 1.7 1.029 2.68 1.132.99.103 1.98-.089 2.86-.553.88-.463 1.6-1.176 2.07-2.049s.67-1.866.57-2.853c-.07-.546-.21-1.083-.4-1.6.77-.298 1.61-.333 2.4-.1-.41.801-.59 1.703-.5 2.6.24 1.208.93 2.283 1.91 3.019.99.736 2.22 1.081 3.44.97 1.23-.112 2.37-.673 3.21-1.575s1.32-2.082 1.34-3.314c-.13-1.31-.77-2.517-1.78-3.359s-2.31-1.252-3.62-1.141z" stroke="#fff" stroke-miterlimit="10"/><path d="m1009.15 402c1.3.544 2.69.816 4.1.8.47.02.94-.014 1.4-.1 2.3 1.1 5.7.6 6.9.2l-.3-4.3-.6.6c-.82.713-1.73 1.317-2.7 1.8-1.4.564-2.89.901-4.4 1h-.2c-1.3.002-2.59-.236-3.8-.7-.05-.022-.1-.033-.15-.035-.05-.001-.1.008-.14.027-.05.018-.09.047-.13.082-.03.036-.06.079-.08.126-.2.18-.05.38.1.5z" fill="#000" opacity=".15"/><path d="m1046.11 417c-5.11 5.98-11.7 10.508-19.11 13.13l-.71.25c.51-6.479 1.36-12.928 2.53-19.32.07-.32.13-.61.2-.88l.62.17 10.68 2.93c2.23.69 4.23 1.976 5.79 3.72z" fill="#4d61fc"/><path d="m1027.55 409.68-1.2 1c-3.43 2.958-7.8 4.593-12.33 4.612-4.53.018-8.92-1.582-12.37-4.512l-1.41-1.13-2.39.53 2.5 2.1c3.78 3.17 8.56 4.904 13.5 4.9 5.01-.01 9.86-1.78 13.7-5l2.2-1.9z" fill="#4d61fc"/><path d="m1027.55 409.68-1.2 1c-3.43 2.958-7.8 4.593-12.33 4.612-4.53.018-8.92-1.582-12.37-4.512l-1.41-1.13-2.39.53 2.5 2.1c3.78 3.17 8.56 4.904 13.5 4.9 5.01-.01 9.86-1.78 13.7-5l2.2-1.9z" fill="#000" opacity=".5"/><path d="m1029.75 413.08c.44 0 .8-.358.8-.8 0-.441-.36-.8-.8-.8s-.8.359-.8.8c0 .442.36.8.8.8z" fill="#fff"/><path d="m1020.15 425.38c.44 0 .8-.358.8-.8s-.36-.8-.8-.8-.8.358-.8.8.36.8.8.8z" fill="#fff"/><path d="m1000.95 418.88c.44 0 .8-.358.8-.8s-.36-.8-.8-.8-.8.358-.8.8.36.8.8.8z" fill="#fff"/><path d="m984.75 415.58c.442 0 .8-.358.8-.8 0-.441-.358-.8-.8-.8s-.8.359-.8.8c0 .442.358.8.8.8z" fill="#fff"/><path d="m1003.55 554.38c-.1.1-.2.3-.1.4l.4 2.3c.02.09.02.186-.01.273-.03.088-.09.164-.17.218-.07.055-.16.085-.26.086-.09.002-.18-.025-.26-.077l-2.1-1.1c-.1 0-.1-.1-.2-.1l-1.6-.1.8-6.1.7-1.3c.2 0 .3.1.4.3l1 2.1c.11.123.25.225.4.3l2.3.3c.08.016.16.053.23.109.06.055.11.126.14.207.04.08.04.167.03.252-.01.084-.05.164-.1.232z" fill="#b1b5ba"/><g fill="#4d61fc"><path d="m954.45 549.28 1 2.1c.114.124.25.225.4.3l2.3.3c.085.016.163.054.229.109s.116.127.146.207.039.167.026.252-.048.165-.101.232l-1.7 1.6c-.1.1-.2.3-.1.4l.4 2.3c.024.091.02.186-.012.274s-.089.164-.165.218-.167.084-.26.085c-.093.002-.185-.025-.263-.077l-2.1-1.1c-.055-.049-.126-.076-.2-.076s-.145.027-.2.076l-2.1 1.1c-.3.2-.7-.1-.7-.5l.4-2.3c0-.2 0-.3-.1-.4l-1.7-1.6c-.3-.3-.1-.7.3-.8l2.3-.3c.2 0 .3-.1.4-.3l1-2.1c.027-.084.081-.158.153-.211.072-.052.158-.081.247-.081s.176.029.248.081c.072.053.125.127.152.211z"/><path d="m966.15 549.28 1 2.1c.114.124.249.225.4.3l2.3.3c.084.016.163.054.228.109.066.055.116.127.146.207.031.08.04.167.026.252-.013.085-.047.165-.1.232l-1.7 1.6c-.1.1-.2.3-.1.4l.4 2.3c.023.091.019.186-.013.274-.031.088-.089.164-.165.218s-.167.084-.26.085c-.093.002-.185-.025-.262-.077l-2.1-1.1c-.055-.049-.127-.076-.2-.076-.074 0-.145.027-.2.076l-2.1 1.1c-.3.2-.7-.1-.7-.5l.4-2.3c0-.2 0-.3-.1-.4l-1.7-1.6c-.3-.3-.1-.7.3-.8l2.3-.3c.2 0 .3-.1.4-.3l1-2.1c.027-.084.08-.158.152-.211.072-.052.159-.081.248-.081s.175.029.247.081c.072.053.125.127.153.211z"/><path d="m977.85 549.28 1 2.1c.114.124.249.225.4.3l2.3.3c.084.016.163.054.228.109.066.055.117.127.147.207s.039.167.026.252c-.014.085-.048.165-.101.232l-1.7 1.6c-.1.1-.2.3-.1.4l.4 2.3c.024.091.019.186-.012.274-.032.088-.09.164-.166.218s-.166.084-.26.085c-.093.002-.185-.025-.262-.077l-2.1-1.1c-.055-.049-.126-.076-.2-.076s-.145.027-.2.076l-2.1 1.1c-.3.2-.7-.1-.7-.5l.4-2.3c0-.2 0-.3-.1-.4l-1.7-1.6c-.3-.3-.1-.7.3-.8l2.3-.3c.2 0 .3-.1.4-.3l1-2.1c.027-.084.08-.158.152-.211.072-.052.159-.081.248-.081s.175.029.247.081c.072.053.126.127.153.211z"/><path d="m989.55 549.28 1 2.1c.114.124.249.225.4.3l2.3.3c.084.016.163.054.229.109.065.055.116.127.146.207s.039.167.026.252-.048.165-.101.232l-1.7 1.6c-.1.1-.2.3-.1.4l.4 2.3c.024.091.019.186-.012.274-.032.088-.09.164-.165.218-.076.054-.167.084-.26.085-.094.002-.185-.025-.263-.077l-2.1-1.1c-.055-.049-.126-.076-.2-.076s-.145.027-.2.076l-2.1 1.1c-.3.2-.7-.1-.7-.5l.4-2.3c0-.2 0-.3-.1-.4l-1.7-1.6c-.3-.3-.1-.7.3-.8l2.3-.3c.2 0 .3-.1.4-.3l1-2.1c.027-.084.08-.158.152-.211.072-.052.159-.081.248-.081s.176.029.247.081c.072.053.126.127.153.211z"/><path d="m1000.85 549v7.5c-.1 0-.1 0-.2.1l-2.1 1.1c-.3.2-.7-.1-.7-.5l.4-2.3c0-.2 0-.3-.1-.4l-1.7-1.6c-.3-.3-.1-.7.3-.8l2.3-.3c.2 0 .3-.1.4-.3l1-2.1c.1-.32.3-.4.4-.4z"/><path d="m1072.25 560.68h-41.8c-.53 0-1.04-.21-1.41-.586-.38-.375-.59-.883-.59-1.414v-10.4c0-.53.21-1.039.59-1.414.37-.375.88-.586 1.41-.586h41.8c.53 0 1.04.211 1.41.586.38.375.59.884.59 1.414v10.4c-.02.525-.23 1.024-.6 1.395-.38.371-.87.588-1.4.605z"/></g><path d="m1061 555.08h-19.4c-.4-.01-.77-.171-1.05-.45-.28-.28-.44-.655-.45-1.05.01-.395.17-.77.45-1.049.28-.28.65-.441 1.05-.451h19.4c.39.01.77.171 1.05.451.28.279.44.654.45 1.049 0 .198-.03.395-.11.579-.07.184-.18.351-.32.491s-.31.25-.49.324c-.19.074-.38.11-.58.106z" fill="#fff"/><path d="m1259.05 578.58h-143.2c-1.56-.002-3.06-.625-4.17-1.731-1.1-1.106-1.73-2.605-1.73-4.169v-244.5c0-1.564.63-3.063 1.73-4.169 1.11-1.106 2.61-1.728 4.17-1.731h143.2c1.56.003 3.06.625 4.17 1.731s1.73 2.605 1.73 4.169v244.6c-.02 1.549-.66 3.025-1.76 4.111-1.1 1.085-2.59 1.692-4.14 1.689z" fill="#fff"/><path d="m1233.35 471h-93.1c-.34-.006-.67-.144-.91-.387-.25-.243-.38-.57-.39-.913v-4.3c.01-.344.14-.671.39-.914.24-.243.57-.381.91-.386h93.1c.34.005.67.143.91.386.25.243.39.57.39.914v4.3c0 .343-.14.67-.39.913-.24.243-.57.381-.91.387z" fill="#3f4249"/><path d="m1240 489.18h-105c-.24.001-.47-.044-.69-.134s-.42-.223-.59-.39c-.16-.168-.3-.366-.39-.585s-.13-.454-.13-.691c0-.237.04-.471.13-.69s.23-.418.39-.586c.17-.167.37-.3.59-.39s.45-.135.69-.134h105c.24-.001.47.044.69.134s.42.223.59.39c.16.168.3.367.39.586s.13.453.13.69c0 .237-.04.472-.13.691s-.23.417-.39.585c-.17.167-.37.3-.59.39s-.45.135-.69.134z" fill="#b1b5ba"/><path d="m1240 505.78h-105c-.24.001-.47-.045-.69-.135s-.42-.222-.59-.39c-.16-.167-.3-.366-.39-.585s-.13-.454-.13-.69c0-.237.04-.472.13-.691s.23-.418.39-.585c.17-.167.37-.3.59-.39s.45-.136.69-.134h105c.24-.002.47.044.69.134s.42.223.59.39c.16.167.3.366.39.585s.13.454.13.691c0 .236-.04.471-.13.69s-.23.418-.39.585c-.17.168-.37.3-.59.39s-.45.136-.69.135z" fill="#b1b5ba"/><path d="m1216.35 522.38h-57.7c-.24.002-.47-.044-.69-.134s-.42-.223-.59-.39c-.16-.167-.3-.366-.39-.585s-.13-.454-.13-.691c0-.236.04-.471.13-.69s.23-.418.39-.585c.17-.168.37-.3.59-.39s.45-.136.69-.135h57.7c.24-.001.47.045.69.135s.42.222.59.39c.16.167.3.366.39.585s.13.454.13.69c0 .237-.04.472-.13.691s-.23.418-.39.585c-.17.167-.37.3-.59.39s-.45.136-.69.134z" fill="#b1b5ba"/><path d="m1232.05 388.08c0 8.821-2.62 17.444-7.52 24.778s-11.86 13.051-20.01 16.427c-8.15 3.375-17.12 4.259-25.77 2.538s-16.6-5.969-22.84-12.206c-6.23-6.238-10.48-14.185-12.2-22.836-1.72-8.652-.84-17.619 2.53-25.769 3.38-8.15 9.1-15.115 16.43-20.016 7.34-4.901 15.96-7.516 24.78-7.516 5.87-.042 11.69 1.084 17.12 3.311 5.43 2.226 10.36 5.51 14.51 9.66 4.15 4.149 7.43 9.083 9.66 14.512 2.23 5.43 3.35 11.248 3.31 17.117z" fill="#4d61fc" opacity=".3"/><path d="m1174.25 377.28c-.85-.085-1.67-.336-2.42-.739s-1.41-.95-1.95-1.609c-.54-.66-.94-1.419-1.19-2.234-.24-.815-.33-1.671-.24-2.518s.34-1.669.74-2.419c.4-.749.95-1.413 1.61-1.951.66-.539 1.42-.942 2.23-1.187.82-.246 1.67-.328 2.52-.243.2 0 .7-.1.7.1-1.8 5.6-.6 12.9-2 12.8z" fill="#21252b"/><path d="m1202 403.48c0 .3-7.6 18.2-13.5 18.6-5.2.4-8.8-16.1-8.8-16.5l.2-8.7-.1-4.5c-.3-1.1-1.5-2-1.6-3.4-.6-6.3-1.4-12-1.4-12s20.2-14.3 21.9 1.7l2 2.5z" fill="#966363"/><path d="m1176.65 357.08s-9.7 37.4 7.7 40.2c15 2.5 17.5-21 17.5-21l-.2-15.3-11.5-5z" fill="#966363"/><path d="m1181 366.58c.94-1.244 2.17-2.241 3.58-2.903s2.96-.97 4.52-.897c.87.055 1.72.296 2.49.707.76.41 1.44.98 1.97 1.671.53.692.9 1.489 1.1 2.337.2.849.21 1.73.04 2.585l-.1.9c-.06.41.04.828.28 1.164.25.336.61.565 1.02.636.78.076 1.5.453 2 1.051s.76 1.369.7 2.149l-.2 2.6c0 .079.01.159.04.233s.07.141.13.197.12.101.2.13c.07.029.15.042.23.04.2.025.4-.008.58-.098.17-.089.32-.229.42-.402l.5-2.8-1.7-16.3-13.2-4.4-5.8 4.4z" fill="#21252b"/><path d="m1200.65 382.08c-.41-.091-.79-.286-1.11-.566-.31-.28-.55-.636-.69-1.034l1.9 3.7z" fill="#000" opacity=".15"/><path d="m1194.45 394.38c-1.93 2.161-4.61 3.488-7.5 3.7-2.13 1.317-4.6 1.946-7.1 1.8v-4.4l.7.5c2.1 1.274 4.58 1.771 7.01 1.406s4.66-1.57 6.29-3.406c.06-.066.14-.112.23-.13s.19-.007.27.03c.2.12.2.3.1.5z" fill="#000" opacity=".15"/><path d="m1188.15 378.48c.77 0 1.4-.627 1.4-1.4 0-.774-.63-1.4-1.4-1.4s-1.4.626-1.4 1.4c0 .773.63 1.4 1.4 1.4z" fill="#21252b"/><path d="m1187.55 376.88c.17 0 .3-.134.3-.3 0-.165-.13-.3-.3-.3s-.3.135-.3.3c0 .166.13.3.3.3z" fill="#fff"/><path d="m1178.15 378.68c.77 0 1.4-.627 1.4-1.4s-.63-1.4-1.4-1.4-1.4.627-1.4 1.4.63 1.4 1.4 1.4z" fill="#21252b"/><path d="m1177.55 377.08c.17 0 .3-.134.3-.3 0-.165-.13-.3-.3-.3s-.3.135-.3.3c0 .166.13.3.3.3z" fill="#fff"/><path d="m1181.85 384.38 1.8-.1c.11 0 .21-.042.28-.117.08-.075.12-.177.12-.283s-.04-.208-.12-.283c-.07-.075-.17-.117-.28-.117l-1.8.1c-.11.007-.22-.009-.33-.045-.11-.037-.2-.094-.29-.169-.08-.074-.15-.164-.2-.264-.05-.101-.07-.21-.08-.322s.01-.223.05-.329c.03-.106.09-.203.16-.287.08-.083.17-.151.27-.2s.21-.077.32-.084c.11 0 .21-.042.28-.117.08-.075.12-.177.12-.283s-.04-.208-.12-.283c-.07-.075-.17-.117-.28-.117-.44.018-.85.206-1.15.524s-.46.74-.45 1.176c.03.431.22.834.54 1.13.31.296.73.464 1.16.47z" fill="#000" opacity=".09"/><path d="m1227.24 408.23c-3.75 7.406-9.5 13.618-16.59 17.938-7.08 4.319-15.24 6.575-23.54 6.513-8.3-.063-16.42-2.44-23.45-6.866-7.02-4.426-12.67-10.724-16.31-18.185 1.25-.957 2.74-1.562 4.3-1.75h.1l26.57-3.21 1.4-.17h.12l5.69 10.23.26.48 2.53 4.55 3.65-4.34.39-.47 9.13-10.86.32.08 1.75.41 22.33 5.31c.3.1.6.1.8.2z" fill="#3f4249"/><path d="m1205.75 366.08c-.3-4.1-2.2-7.3-5.7-8.3-1.51-.381-3.08-.416-4.6-.1-.13.029-.27.032-.4.007s-.26-.076-.37-.151-.21-.171-.28-.284c-.08-.113-.13-.239-.15-.372-.26-1.374-.97-2.621-2.02-3.545-1.06-.923-2.38-1.47-3.78-1.555-.98-.041-1.95.135-2.85.515-.9.381-1.7.956-2.35 1.685-.09.113-.2.207-.32.274-.13.067-.27.107-.41.116-.14.01-.28-.011-.41-.061-.14-.05-.26-.128-.36-.229 0 0-4-3.6-9.6-.5-1.92 1.08-3.36 2.839-4.05 4.931-.68 2.092-.56 4.364.35 6.369.42 1.055 1.08 1.996 1.93 2.748.86.753 1.87 1.297 2.97 1.588 1.09.292 2.25.323 3.36.091s2.15-.721 3.04-1.427c1.57-1.39 2.57-3.315 2.8-5.4.22-1.428.19-2.883-.1-4.3l1.8.1c2.91-.097 5.82.037 8.7.4-.1 0-.1.1-.2.1l5.5 2.3s.8 15.1 1.8 14.9c3.95-.5 6-6.2 5.7-9.9z" fill="#21252b"/><path d="m1205.75 367.28-11.4-.4c-.4-1.147-1.12-2.155-2.08-2.9s-2.11-1.197-3.32-1.3c-1.53-.079-3.06.217-4.46.861-1.39.645-2.61 1.619-3.54 2.839-.35.535-.79 1.008-1.3 1.4-3.7 3.1-9.4 1.4-11.3-3-.89-2.008-1-4.273-.31-6.359.68-2.085 2.11-3.845 4.01-4.941 1.47-.889 3.16-1.316 4.88-1.227 1.71.089 3.35.691 4.72 1.727.1.1.22.178.35.228.14.05.28.071.42.062.14-.01.28-.05.41-.117.12-.067.23-.16.32-.273.63-.755 1.43-1.348 2.33-1.731.91-.383 1.89-.544 2.87-.469 1.39.099 2.71.651 3.76 1.572 1.05.922 1.76 2.161 2.04 3.528.02.132.07.259.15.371.07.113.17.21.28.284.11.075.24.126.37.151s.27.023.4-.006c1.52-.366 3.1-.332 4.6.1 3.5 1 5.5 4.2 5.7 8.3.08.428.11.864.1 1.3z" fill="#21252b"/><path d="m1176.45 370.18 1.8-.3c.2 0 .3-.2.3-.4s-.2-.3-.4-.3l-1.8.3c-.22.09-.46.124-.7.1-.78-.018-1.56-.153-2.3-.4-.09-.04-.2-.041-.29-.003-.1.037-.17.11-.21.203s-.04.198 0 .292c.03.093.11.168.2.208.78.254 1.58.421 2.4.5.31-.145.66-.214 1-.2z" fill="#966363"/><path d="m1187.35 418.28-5.7-4.8 7-1.3 6.9 1.4-6.1 4.8c-.32.204-.69.304-1.07.286-.37-.018-.73-.153-1.03-.386z" fill="#fff"/><path d="m1188.65 412.18 11.6 2.4 3.4-12.1-.4-3.3c-.04-.213-.15-.406-.32-.551-.16-.144-.36-.232-.58-.249h-.7l.2 3.2z" fill="#fff"/><path d="m1179.75 402.38v-2.8h-.4c-.26 0-.52.105-.71.293-.18.188-.29.442-.29.707l-.2 13.5 10.5-1.9z" fill="#fff"/><path d="m1197.45 414.68-8.8-2-9.3 1.8-.2-.6 9.5-1.7 9 1.9z" fill="#000" opacity=".0225"/><path d="m1205.75 367.28c-.2 3.5-2.1 7.9-5.4 8.7l-.5 2.7c-.07.173-.2.316-.36.407-.17.091-.36.124-.54.093-.16-.011-.3-.078-.41-.188s-.18-.256-.19-.412l.2-2.6c.04-.776-.22-1.537-.72-2.131s-1.21-.976-1.98-1.069c-.21-.026-.41-.094-.58-.2-.18-.107-.34-.249-.46-.417-.12-.169-.21-.361-.25-.565-.05-.203-.05-.413-.01-.618l.1-.9c.19-1.034.12-2.099-.2-3.1z" fill="#3f4249"/><path d="m1200.45 374.48c.11-.371.3-.713.55-1.005s.56-.526.91-.687c.35-.162.74-.246 1.12-.247.39-.001.77.08 1.12.239 3.3 1.2 2.3 8-2.3 9.3-2.8.4-2.4-1.3-2-3.5z" fill="#966363"/><path d="m1204.45 374.48c-.46-.255-.99-.327-1.5-.2-.29.097-.55.254-.78.461-.22.207-.4.459-.52.739-.25.635-.36 1.319-.3 2v.6c0 .2.2.3.4.3s.3-.2.3-.4v-.6c-.02-.581.09-1.159.3-1.7.06-.174.17-.329.31-.451s.31-.207.49-.249c.37-.113.76-.077 1.1.1.1.1.4 0 .5-.1-.1.02.1-.3-.3-.5z" fill="#000" opacity=".3"/><path d="m1198.05 368.28v.7l-3.3-.2v-.7z" fill="#21252b"/><path d="m1197.31 370.02-.04.699 2.79.172.05-.698z" fill="#21252b"/><path d="m1184.75 397.78c-.8.032-1.6-.096-2.36-.376-.75-.28-1.44-.707-2.02-1.256-.59-.549-1.06-1.209-1.39-1.942s-.51-1.523-.53-2.326l-.1-2.9c-.03-.568.06-1.135.26-1.667.2-.533.51-1.019.9-1.43s.86-.739 1.39-.963c.52-.223 1.08-.339 1.65-.34l3.5-.1c.57-.026 1.13.064 1.67.263.53.2 1.02.505 1.43.897.41.393.74.864.96 1.387.22.522.34 1.084.34 1.653l.1 2.9c.05.793-.06 1.588-.33 2.336s-.69 1.433-1.23 2.014c-.55.58-1.2 1.043-1.93 1.362-.73.318-1.52.484-2.31.488z" fill="#21252b"/><path d="m1181.15 387.18 6.1-.1c-.1.668-.44 1.276-.96 1.716-.51.44-1.16.683-1.84.684-.37.071-.75.067-1.11-.012-.37-.078-.72-.228-1.02-.443-.31-.214-.57-.488-.77-.804-.2-.317-.34-.671-.4-1.041z" fill="#fff"/><path d="m1190.35 375.08c.2 0 .4-.2.5-.5 0-.067-.01-.134-.03-.197-.02-.062-.06-.119-.11-.166-.04-.048-.1-.085-.16-.108-.07-.024-.13-.034-.2-.029l-3.2-.2c-.13 0-.26.053-.35.146-.1.094-.15.221-.15.354 0 .132.05.26.15.353.09.094.22.147.35.147z" fill="#21252b"/><path d="m1176.15 375.38c-.13-.009-.25-.065-.34-.157s-.15-.213-.16-.343c0-.067.01-.134.03-.196.02-.063.06-.12.11-.167.04-.048.1-.084.16-.108.07-.023.13-.033.2-.029l3.2-.3c.13 0 .26.053.35.147.1.093.15.22.15.353s-.05.26-.15.354c-.09.093-.22.146-.35.146z" fill="#21252b"/><path d="m1129.25 549.28 1 2.1c.11.124.25.226.4.3l2.3.3c.08.016.16.054.23.109.06.055.11.127.15.207.03.08.03.167.02.252s-.05.165-.1.232l-1.7 1.6c-.1.1-.2.3-.1.4l.4 2.3c.02.091.02.186-.01.274s-.09.164-.17.218c-.07.054-.16.084-.26.086-.09.001-.18-.026-.26-.078l-2.1-1.1c-.05-.049-.13-.076-.2-.076s-.14.027-.2.076l-2.1 1.1c-.3.2-.7-.1-.7-.5l.4-2.3c0-.2 0-.3-.1-.4l-1.7-1.6c-.3-.3-.1-.7.3-.8l2.3-.3c.2 0 .3-.1.4-.3l1-2.1c.1-.4.6-.4.8 0z" fill="#4d61fc"/><path d="m1141 549.28 1 2.1c.11.124.25.226.4.3l2.3.3c.08.016.16.054.23.109.06.055.11.127.15.207.03.08.03.167.02.252s-.05.165-.1.232l-1.7 1.6c-.1.1-.2.3-.1.4l.4 2.3c.02.091.02.186-.01.274s-.09.164-.17.218c-.07.054-.16.084-.26.086-.09.001-.18-.026-.26-.078l-2.1-1.1c-.05-.049-.13-.076-.2-.076s-.14.027-.2.076l-2.1 1.1c-.3.2-.7-.1-.7-.5l.4-2.3c0-.2 0-.3-.1-.4l-1.7-1.6c-.3-.3-.1-.7.3-.8l2.3-.3c.2 0 .3-.1.4-.3l1-2.1c.05-.4.55-.4.8 0z" fill="#4d61fc"/><path d="m1152.65 549.28 1 2.1c.11.124.25.226.4.3l2.3.3c.08.016.16.054.23.109.06.055.11.127.14.207s.04.167.03.252-.05.165-.1.232l-1.7 1.6c-.1.1-.2.3-.1.4l.4 2.3c.02.091.02.186-.01.274s-.09.164-.17.218c-.07.054-.16.084-.26.086-.09.001-.18-.026-.26-.078l-2.1-1.1c-.06-.049-.13-.076-.2-.076s-.15.027-.2.076l-2.1 1.1c-.3.2-.7-.1-.7-.5l.4-2.3c0-.2 0-.3-.1-.4l-1.7-1.6c-.3-.3-.1-.7.3-.8l2.3-.3c.2 0 .3-.1.4-.3l1-2.1c.15-.4.6-.4.8 0z" fill="#4d61fc"/><path d="m1164.35 549.28 1 2.1c.11.124.25.226.4.3l2.3.3c.08.016.16.054.23.109.06.055.11.127.14.207s.04.167.03.252-.05.165-.1.232l-1.7 1.6c-.1.1-.2.3-.1.4l.4 2.3c.02.091.02.186-.01.274s-.09.164-.17.218c-.07.054-.16.084-.26.086-.09.001-.18-.026-.26-.078l-2.1-1.1c-.06-.049-.13-.076-.2-.076s-.15.027-.2.076l-2.1 1.1c-.3.2-.7-.1-.7-.5l.4-2.3c0-.2 0-.3-.1-.4l-1.7-1.6c-.3-.3-.1-.7.3-.8l2.3-.3c.2 0 .3-.1.4-.3l1-2.1c.1-.4.6-.4.8 0z" fill="#4d61fc"/><path d="m1176.05 549.28 1 2.1c.11.124.25.226.4.3l2.3.3c.08.016.16.054.23.109.06.055.11.127.14.207s.04.167.03.252-.05.165-.1.232l-1.7 1.6c-.1.1-.2.3-.1.4l.4 2.3c.02.091.02.186-.01.274s-.09.164-.17.218c-.07.054-.16.084-.26.086-.09.001-.18-.026-.26-.078l-2.1-1.1c-.06-.049-.13-.076-.2-.076s-.15.027-.2.076l-2.1 1.1c-.3.2-.7-.1-.7-.5l.4-2.3c0-.2 0-.3-.1-.4l-1.7-1.6c-.3-.3-.1-.7.3-.8l2.3-.3c.2 0 .3-.1.4-.3l1-2.1c.1-.4.6-.4.8 0z" fill="#b1b5ba"/><path d="m1247.55 560.68h-41.8c-.53 0-1.04-.21-1.41-.586-.38-.375-.59-.883-.59-1.414v-10.4c0-.53.21-1.039.59-1.414.37-.375.88-.586 1.41-.586h41.8c.53 0 1.04.211 1.41.586.38.375.59.884.59 1.414v10.4c0 .531-.21 1.039-.59 1.414-.37.376-.88.586-1.41.586z" fill="#4d61fc"/><path d="m1236.35 555.08h-19.35c-.39-.01-.77-.171-1.05-.45-.28-.28-.44-.655-.45-1.05.01-.395.17-.77.45-1.049.28-.28.66-.441 1.05-.451h19.4c.39.01.77.171 1.05.451.28.279.44.654.45 1.049-.03.398-.2.771-.49 1.048-.28.277-.66.438-1.06.452z" fill="#fff"/><path d="m582.15 733.58c-.004.829.157 1.65.472 2.416s.779 1.462 1.365 2.048 1.282 1.049 2.048 1.365c.766.315 1.587.475 2.415.471h516.1c1.67 0 3.27-.664 4.46-1.845 1.18-1.182 1.84-2.784 1.84-4.455s-.66-3.273-1.84-4.455c-1.19-1.181-2.79-1.845-4.46-1.845h-516c-.835-.013-1.665.14-2.441.451-.776.31-1.482.772-2.078 1.359-.596.586-1.069 1.285-1.392 2.056-.322.771-.489 1.598-.489 2.434z" fill="#61656d"/><path d="m582.15 733.58c-.004.829.157 1.65.472 2.416s.779 1.462 1.365 2.048 1.282 1.049 2.048 1.365c.766.315 1.587.475 2.415.471h516.1c1.67 0 3.27-.664 4.46-1.845 1.18-1.182 1.84-2.784 1.84-4.455s-.66-3.273-1.84-4.455c-1.19-1.181-2.79-1.845-4.46-1.845h-516c-.835-.013-1.665.14-2.441.451-.776.31-1.482.772-2.078 1.359-.596.586-1.069 1.285-1.392 2.056-.322.771-.489 1.598-.489 2.434z" fill="#61656d"/><path d="m532.15 733.58c-.004.828.156 1.649.472 2.416.315.766.779 1.462 1.364 2.048.586.585 1.282 1.049 2.048 1.364.767.316 1.588.476 2.416.472h469.1c1.67 0 3.27-.664 4.45-1.845 1.19-1.182 1.85-2.784 1.85-4.455s-.66-3.273-1.85-4.455c-1.18-1.181-2.78-1.845-4.45-1.845h-469.1c-.831-.012-1.655.142-2.425.455-.77.312-1.469.776-2.057 1.363-.587.588-1.051 1.287-1.363 2.057s-.467 1.594-.455 2.425z" fill="#868a91"/><path d="m1093.35 739.88h-103v310.7h103z" fill="#61656d"/><path d="m990.35 739.88h-12.2v310.7h12.2z" fill="#868a91"/><path d="m857.55 964.68h-12.2v85.9h12.2z" fill="#868a91"/><path d="m978.25 739.88h-132.7v277.8h132.7z" fill="#868a91"/><path d="m683.21 740.23h-117.5v310.7h117.5z" fill="#61656d"/><path d="m565.95 739.88h-12.2v310.7h12.2z" fill="#868a91"/><path d="m978.15 739.88h-424.5v28.7h424.5z" fill="#868a91"/><path d="m990.35 739.98h-11.4v-.1h-1.5v.1h-423.7v1.5h423.7v276.2h1.5v-276.2h11.4z" fill="#000" opacity=".15"/><path d="m960.76 780.2h-95.72v219.04h95.72z" fill="#000" opacity=".15"/><path d="m958.75 782.08v70.1h-91.7v-70.1h35.5c.884 2.023 2.339 3.744 4.186 4.952 1.847 1.209 4.006 1.852 6.214 1.852 2.207 0 4.367-.643 6.214-1.852 1.847-1.208 3.302-2.929 4.186-4.952z" fill="#868a91"/><path d="m923.25 927.38h35.4v70.1h-91.6v-70.1h35.4c.884 2.023 2.339 3.743 4.186 4.952s4.006 1.852 6.214 1.852c2.207 0 4.367-.643 6.214-1.852s3.302-2.929 4.186-4.952z" fill="#868a91"/><path d="m923.35 854.78h35.4v70.1h-91.7v-70.1h35.4c.907 2.026 2.381 3.746 4.244 4.953 1.864 1.206 4.036 1.848 6.256 1.847 2.21.014 4.374-.624 6.224-1.834 1.849-1.209 3.302-2.936 4.176-4.966z" fill="#868a91"/><path d="m514.65 335.18h-110.7v140.9h110.7z" fill="#fff"/><path d="m499.85 349.38h-81.2v112.6h81.2z" fill="#ddd"/><path d="m517.85 335.18h-3.2v140.9h3.2z" fill="#dadddf"/><path d="m445.85 421.08c9.72 0 17.6-7.88 17.6-17.6s-7.88-17.6-17.6-17.6-17.6 7.88-17.6 17.6 7.88 17.6 17.6 17.6z" fill="#4d61fc"/><path d="m489.75 449.68-18.3-28.6-18.3 28.3z" fill="#868a91"/><path d="m487.95 361.58h-38v38h38z" fill="#000" opacity=".2"/><path d="m935.75 725-3.9-49.4h35.2l-3 49.4c-.053.627-.339 1.211-.802 1.637s-1.069.662-1.698.663h-23.3c-.624-.018-1.221-.261-1.68-.683-.459-.423-.751-.997-.82-1.617z" fill="#b1b5ba"/><path d="m931.75 671.38h3.9l1.8-4.5c.051-.145.146-.271.271-.36.126-.09.275-.139.429-.14h23.6c.154.001.304.05.429.14.125.089.22.215.271.36l1.8 4.5h3.1c.198-.009.391.059.54.19.149.13.242.313.26.51v2.7c0 .1-.022.2-.064.291s-.103.173-.178.239c-.076.066-.165.115-.261.145-.096.029-.197.038-.297.025h-35.5c-.198.008-.391-.06-.54-.19s-.242-.313-.26-.51v-2.7c-.003-.093.014-.185.048-.271s.085-.165.151-.23c.066-.066.144-.117.23-.151.086-.035.178-.051.271-.048z" fill="#3f4249"/><path d="m936.05 670.48h19.5l-1.5-4.1h7.6c.154.001.303.05.429.14.125.089.22.215.271.36l1.8 4.5h3.1c.198-.009.391.059.54.19.149.13.242.313.26.51v2.7c-.001.1-.023.2-.065.291-.041.091-.102.173-.178.239-.075.066-.164.115-.26.145-.096.029-.198.038-.297.025h-6.25c-.5-1.5-1.2-3.5-1.2-3.5-.078-.203-.215-.379-.393-.503-.178-.125-.39-.194-.607-.197h-23z" fill="#000" opacity=".15"/><path d="m932 676.78-.1-1.2h35.2l-3 49.4c-.052.627-.338 1.211-.801 1.637s-1.07.663-1.699.663h-1.7l-1.3-48.6z" fill="#000" opacity=".2"/><path d="m960 697.48c0-2.652-1.054-5.195-2.929-7.071-1.875-1.875-4.419-2.929-7.071-2.929s-5.196 1.054-7.071 2.929c-1.875 1.876-2.929 4.419-2.929 7.071" fill="#3f4249"/><path d="m933.85 701.38h31.7l-.6 9.7h-30.3z" fill="#3f4249"/><path d="m1249.35 904.38-48.3 52.4.3-96.4h-1.2l-.2 46.8-40.8-41.6-.9.8 41.7 42.5-.3 87.3h1.2l.2-37.6v-.1l49.1-53.3z" fill="#21252b"/><path d="m1163.85 956.58-.8.9 21.2 20 3.4 18.8 1.2-.2-13.5-75.3-1.1.2 9.7 54.5z" fill="#21252b"/><path d="m1179.45 1050.48h30c2.7-.01 5.29-1.09 7.2-3s2.99-4.5 3-7.2v-39.7h-50.4v39.7c.01 2.7 1.09 5.29 3 7.2s4.5 2.99 7.2 3z" fill="#868a91"/><path d="m1200.75 860.48c17.34 0 31.4-14.059 31.4-31.4 0-17.342-14.06-31.4-31.4-31.4s-31.4 14.058-31.4 31.4c0 17.341 14.06 31.4 31.4 31.4z" fill="#4d61fc"/><path d="m1172.55 923.98c12.37 0 22.4-10.029 22.4-22.4s-10.03-22.4-22.4-22.4-22.4 10.029-22.4 22.4 10.03 22.4 22.4 22.4z" fill="#4d61fc"/><path d="m1172.55 923.98c12.37 0 22.4-10.029 22.4-22.4s-10.03-22.4-22.4-22.4-22.4 10.029-22.4 22.4 10.03 22.4 22.4 22.4z" fill="#fff" opacity=".09"/><path d="m1200.75 860.48c17.34 0 31.4-14.059 31.4-31.4 0-17.342-14.06-31.4-31.4-31.4s-31.4 14.058-31.4 31.4c0 17.341 14.06 31.4 31.4 31.4z" fill="#fff" opacity=".09"/><path d="m1152.65 873.18c7.4 0 13.4-5.999 13.4-13.4s-6-13.4-13.4-13.4-13.4 5.999-13.4 13.4 6 13.4 13.4 13.4z" fill="#4d61fc"/><path d="m1152.25 962.58c8.78 0 15.9-7.118 15.9-15.9 0-8.781-7.12-15.9-15.9-15.9s-15.9 7.119-15.9 15.9c0 8.782 7.12 15.9 15.9 15.9z" fill="#4d61fc"/><path d="m1237.35 938.78c11.21 0 20.3-9.089 20.3-20.3 0-11.212-9.09-20.3-20.3-20.3s-20.3 9.088-20.3 20.3c0 11.211 9.09 20.3 20.3 20.3z" fill="#4d61fc"/><path d="m1220.75 995.28h-52.5c-.36-.001-.71.068-1.04.203-.32.135-.62.334-.87.585s-.45.549-.59.877c-.13.329-.2.68-.2 1.035 0 .355.07.707.2 1.035.14.328.34.626.59.877.25.248.55.448.87.588.33.13.68.2 1.04.2h52.6c.35 0 .71-.07 1.03-.2.33-.14.63-.34.88-.588.25-.251.45-.549.59-.877.13-.328.2-.68.2-1.035-.04-.722-.35-1.403-.87-1.904-.52-.502-1.21-.786-1.93-.796z" fill="#868a91"/><path d="m1169.35 829.08c.01-8.324 3.33-16.303 9.21-22.189 5.89-5.886 13.87-9.198 22.19-9.211v62.8c-4.13.009-8.21-.797-12.03-2.372-3.81-1.574-7.28-3.887-10.19-6.805-2.92-2.917-5.23-6.382-6.81-10.196-1.57-3.814-2.38-7.901-2.37-12.027z" fill="#4d61fc"/><path d="m1175.85 923.78c-5.78.857-11.67-.576-16.42-3.995-4.74-3.418-7.96-8.553-8.98-14.311s.26-11.685 3.54-16.521c3.29-4.836 8.33-8.199 14.06-9.373z" fill="#4d61fc"/><path d="m1143.15 869.38c-1.26-1.24-2.25-2.716-2.94-4.343-.68-1.626-1.04-3.372-1.05-5.136-.01-1.765.33-3.514 1-5.147.67-1.634 1.65-3.12 2.89-4.374.1-.1.1-.1.2-.1l18.8 19.1c-2.54 2.453-5.92 3.824-9.45 3.824s-6.92-1.371-9.45-3.824z" fill="#000" opacity=".3"/><path d="m1163.55 957.88c-2.95 2.921-6.93 4.569-11.09 4.59-4.15.021-8.15-1.586-11.13-4.477s-4.71-6.836-4.82-10.988 1.41-8.182 4.24-11.225l23.2 21.8c-.1 0-.2.2-.4.3z" fill="#000" opacity=".3"/><path d="m1219.65 1000.58h-45.8c-.72 0-1.4-.28-1.91-.791-.51-.506-.79-1.193-.79-1.909s.28-1.403.79-1.909c.51-.507 1.19-.791 1.91-.791h-5.6c-.72 0-1.4.284-1.91.791-.51.506-.79 1.193-.79 1.909s.28 1.403.79 1.909c.51.511 1.19.791 1.91.791h1.1v39.7c.01 2.7 1.09 5.29 3 7.2s4.5 2.99 7.2 3h16.3c-3.45 0-6.79-1.2-9.45-3.38-2.66-2.19-4.48-5.24-5.15-8.62l-7.2-37h45.7z" fill="#61656d"/><path d="m1251.15 903.48c-.1-.1-.2-.1-.3-.2l-27.4 30 .1.1c3.99 3.529 9.2 5.355 14.51 5.087 5.32-.269 10.32-2.61 13.93-6.522 3.61-3.911 5.55-9.083 5.39-14.404s-2.39-10.369-6.23-14.061z" fill="#000" opacity=".3"/><path d="m863.45 723.38h-68.1c-.266 0-.52.105-.707.293-.188.187-.293.442-.293.707v1.7c0 .265.105.52.293.707.187.188.441.293.707.293h68.1c.265 0 .519-.105.707-.293.187-.187.293-.442.293-.707v-1.6c.027-.142.02-.288-.019-.426-.039-.139-.11-.267-.207-.374-.097-.106-.217-.189-.352-.241-.134-.052-.279-.072-.422-.059z" fill="#21252b"/><path d="m863.45 723.38h-68.1c-.266 0-.52.105-.707.293-.188.187-.293.442-.293.707v1.7c0 .265.105.52.293.707.187.188.441.293.707.293h68.1c.265 0 .519-.105.707-.293.187-.187.293-.442.293-.707v-1.6c.027-.142.02-.288-.019-.426-.039-.139-.11-.267-.207-.374-.097-.106-.217-.189-.352-.241-.134-.052-.279-.072-.422-.059z" fill="#000" opacity=".6"/><path d="m817.55 723.38h-118.55c-.265 0-.52.105-.707.293-.188.187-.293.442-.293.707v1.7c0 .265.105.519.293.707.187.188.442.293.707.293h118.7c.265 0 .52-.105.707-.293.188-.188.293-.442.293-.707v-1.6c-.02-.294-.149-.57-.362-.773-.212-.204-.494-.32-.788-.327z" fill="#21252b"/><path d="m862 724.08h-120.85c-.08 0-.156-.031-.212-.087-.057-.057-.088-.133-.088-.213 0-.079.031-.155.088-.212.056-.056.132-.088.212-.088h120.85c.04-.004.081 0 .12.013.039.014.074.036.102.065.029.028.051.064.065.102.013.039.017.08.013.12.05.22-.15.3-.3.3z" fill="#000" opacity=".36"/><path d="m847 723.38h17.9c.663.009 1.308-.217 1.82-.638.513-.421.86-1.01.98-1.662l15-78.8c.079-.413.067-.838-.037-1.246s-.296-.787-.564-1.112c-.267-.325-.603-.586-.983-.766-.38-.181-.795-.275-1.216-.276h-17.9c-.663-.009-1.308.218-1.82.638-.513.421-.86 1.01-.98 1.662l-15 78.8c-.087.414-.08.842.021 1.253s.293.794.562 1.12c.269.327.608.588.991.766.384.178.803.267 1.226.261z" fill="#21252b"/><path d="m847 723.38h17.9c.663.009 1.308-.217 1.82-.638.513-.421.86-1.01.98-1.662l15-78.8c.079-.413.067-.838-.037-1.246s-.296-.787-.564-1.112c-.267-.325-.603-.586-.983-.766-.38-.181-.795-.275-1.216-.276h-17.9c-.663-.009-1.308.218-1.82.638-.513.421-.86 1.01-.98 1.662l-15 78.8c-.087.414-.08.842.021 1.253s.293.794.562 1.12c.269.327.608.588.991.766.384.178.803.267 1.226.261z" fill="#000" opacity=".6"/><path d="m747.15 723.38h114.85c.663.009 1.308-.217 1.821-.638.512-.421.859-1.01.979-1.662l15-78.8c.08-.413.067-.838-.037-1.246s-.296-.787-.563-1.112c-.268-.325-.604-.586-.984-.766-.38-.181-.795-.275-1.216-.276h-114.85c-.663-.009-1.307.218-1.82.638-.512.421-.859 1.01-.98 1.662l-15 78.8c-.097.415-.097.847 0 1.262s.288.802.559 1.131.614.591 1.003.766c.389.174.813.257 1.238.241z" fill="#21252b"/><path d="m747.25 720.58h113.3l16.3-78.9h-114.5c-15.1 78.9 0 .1-15.1 78.9z" fill="#fff"/><path d="m762.35 641.68-15 78.9h113.65l16.3-78.9z" fill="#4d61fc"/><path d="m762.35 641.68-15 78.9h113.65l16.3-78.9z" fill="#fff" opacity=".7"/><path d="m766.213 646.151c.49-.446.586-1.139.215-1.547-.372-.409-1.07-.379-1.561.067-.49.446-.586 1.139-.215 1.547.372.409 1.07.379 1.561-.067z" fill="#4d61fc"/><path d="m770.201 646.154c.49-.446.587-1.139.215-1.547-.371-.409-1.07-.379-1.56.067-.491.446-.587 1.139-.215 1.547.371.409 1.07.379 1.56-.067z" fill="#61656d"/><path d="m774.1 646.153c.49-.446.586-1.139.215-1.547-.372-.409-1.071-.379-1.561.067s-.587 1.139-.215 1.547c.372.409 1.07.379 1.561-.067z" fill="#21252b"/><path d="m854.15 658.58h-60.8c-.098.004-.195-.017-.284-.059-.088-.043-.165-.106-.224-.184-.059-.079-.098-.171-.114-.267-.016-.097-.008-.196.022-.29l.7-3.6c.051-.209.165-.397.326-.54.16-.143.361-.233.574-.26h60.8c.098-.003.196.017.284.06.089.042.166.105.225.184.059.078.098.17.114.267.015.097.008.196-.023.289l-.7 3.6c-.043.213-.154.407-.316.551s-.367.232-.584.249z" fill="#4d61fc" opacity=".2"/><path d="m853.15 655.28c-.187-.183-.438-.286-.7-.286s-.513.103-.7.286c-.206.162-.348.39-.403.646-.055.255-.018.522.103.754.154.16.36.258.581.277.221.018.441-.045.619-.177l.4.5.2-.2-.4-.5c.201-.142.343-.353.398-.593.056-.24.021-.491-.098-.707z" fill="#4d61fc"/><path d="m852.65 656.48c-.063.07-.14.127-.226.165-.086.039-.179.059-.274.059-.094 0-.188-.02-.274-.059-.086-.038-.163-.095-.226-.165-.088-.164-.116-.354-.08-.536.037-.183.136-.347.28-.464.063-.071.14-.127.226-.166.086-.038.18-.058.274-.058.095 0 .188.02.274.058.086.039.163.095.226.166.056.078.094.166.114.26.02.093.021.189.002.283-.018.094-.056.183-.11.261-.055.079-.125.145-.206.196z" fill="#fff" opacity=".7"/><path d="m864.55 655.48h-2.9l.1-.3h2.8z" fill="#4d61fc"/><path d="m864.35 656.48h-2.9l.1-.3h2.8z" fill="#4d61fc"/><path d="m864.15 657.48h-2.9l.1-.3h2.8z" fill="#4d61fc"/><path d="m784.85 713.38h-27.6c-.137.004-.273-.024-.398-.081s-.235-.142-.321-.248c-.087-.107-.149-.231-.18-.365-.031-.133-.032-.272-.001-.406l9-47.1c.062-.302.224-.575.46-.774s.531-.314.84-.326h27.6c.137-.003.273.025.397.082.125.057.235.142.322.248s.148.231.179.364c.032.134.032.273.002.406l-9 47.1c-.063.303-.225.575-.46.775-.236.199-.532.314-.84.325z" fill="#fff"/><path d="m783.278 682.383c3.841-3.493 4.605-8.908 1.707-12.095s-8.361-2.939-12.202.553c-3.841 3.493-4.606 8.908-1.707 12.095 2.898 3.187 8.361 2.94 12.202-.553z" fill="#4d61fc"/><path d="m783.278 682.383c3.841-3.493 4.605-8.908 1.707-12.095s-8.361-2.939-12.202.553c-3.841 3.493-4.606 8.908-1.707 12.095 2.898 3.187 8.361 2.94 12.202-.553z" fill="#fff" opacity=".3"/><path d="m783.25 709.88h-8c-.2 0-.3-.2-.3-.4l.4-2c.007-.104.052-.201.125-.275.074-.074.171-.118.275-.125h8c.2 0 .3.2.3.4l-.4 2c-.007.104-.051.202-.125.275-.073.074-.171.118-.275.125z" fill="#4d61fc"/><path d="m761.15 707.68.1.4h.1l.4.1c.1 0 .1.1 0 .2l-.4.3v.5c0 .027-.01.052-.029.071s-.044.03-.071.03l-.4-.201h-.1l-.4.201c-.1 0-.1-.001-.1-.101l.2-.399v-.101l-.3-.3c0-.1 0-.1.1-.2l.5-.1h.1l.3-.4c-.1-.1 0-.1 0 0z" fill="#4d61fc"/><path d="m763.35 707.68.1.4h.1l.4.1c.1 0 .1.1 0 .2l-.4.3v.5c0 .027-.01.052-.029.071s-.044.03-.071.03l-.4-.201h-.05l-.4.201c-.1 0-.1-.001-.1-.101l.2-.399v-.101l-.3-.3c0-.1 0-.1.1-.2l.5-.1h.1l.3-.4c-.15-.1-.05-.1-.05 0z" fill="#4d61fc"/><path d="m765.65 707.68.1.4h.1l.4.1c.1 0 .1.1 0 .2l-.4.3v.5c0 .027-.01.052-.029.071s-.044.03-.071.03l-.4-.201h-.1l-.4.201c-.1 0-.1-.001-.1-.101l.2-.399v-.101l-.3-.3c0-.1 0-.1.1-.2l.5-.1h.1l.3-.4c-.1-.1 0-.1 0 0z" fill="#4d61fc"/><path d="m767.85 707.68.1.4h.1l.4.1c.1 0 .1.1 0 .2l-.4.3v.5c0 .027-.011.052-.03.071-.018.019-.044.03-.07.03l-.4-.201h-.1l-.4.201c-.1 0-.1-.001-.1-.101l.2-.399v-.101l-.3-.3c0-.1 0-.1.1-.2l.5-.1h.1l.3-.4c-.1-.1 0-.1 0 0z" fill="#4d61fc"/><path d="m770.15 707.68.1.4h.1l.4.1c.1 0 .1.1 0 .2l-.4.3v.5c0 .027-.01.052-.029.071s-.044.03-.071.03l-.4-.201h-.1l-.4.201c-.1 0-.1-.001-.1-.101l.2-.399v-.101l-.3-.3c0-.1 0-.1.1-.2l.5-.1h.1l.3-.4c-.1-.1 0-.1 0 0z" fill="#d9dcde"/><path d="m783.85 692.58h-17.85c-.052-.005-.1-.027-.137-.064-.036-.036-.059-.085-.063-.136l.2-.8c0-.1.2-.2.3-.2h17.9c.051.004.1.027.136.063.037.037.059.085.064.137l-.2.8c-.05.1-.2.2-.35.2z" fill="#3f4249"/><path d="m784.45 696.18h-20.2c-.2 0-.3-.2-.3-.4.007-.104.052-.202.125-.275.074-.074.171-.118.275-.125h20.2c.2 0 .3.2.3.4-.007.104-.051.201-.125.275-.073.073-.171.118-.275.125z" fill="#b1b5ba"/><path d="m783.85 699.281h-20.2c-.2 0-.3-.201-.3-.401.007-.103.051-.201.125-.275.073-.073.171-.118.275-.125h20.25c.2 0 .3.2.3.4-.15.3-.25.401-.45.401z" fill="#b1b5ba"/><path d="m778.65 702.48h-11.1c-.2 0-.3-.2-.3-.4.007-.104.051-.202.125-.275.073-.074.171-.118.275-.125h11.1c.2 0 .3.2.3.4.005.053-.003.107-.021.158-.019.051-.048.097-.086.135s-.084.067-.135.086c-.05.018-.104.025-.158.021z" fill="#b1b5ba"/><path d="m758.377 689.422c.532-.483.631-1.239.222-1.688-.409-.45-1.17-.423-1.702.06-.531.483-.63 1.239-.221 1.689.408.449 1.17.422 1.701-.061z" fill="#fff" opacity=".7"/><path d="m757.65 689.28.3-.2-.4-.4.5-.4-.1-.2-.7.6z" fill="#4d61fc"/><path d="m862.262 689.419c.531-.483.631-1.239.222-1.688-.409-.45-1.171-.423-1.702.06s-.63 1.239-.222 1.689c.409.449 1.171.422 1.702-.061z" fill="#fff" opacity=".7"/><path d="m861.25 689.28-.1-.2.5-.4-.4-.4.3-.2.4.6z" fill="#4d61fc"/><path d="m781.55 657.78h-14.1c-.091.01-.182-.003-.266-.036-.084-.034-.159-.087-.218-.156s-.101-.151-.121-.24c-.02-.088-.019-.18.005-.268l.4-2.1c.06-.194.179-.365.34-.49.161-.126.356-.198.56-.21h14.1c.09-.009.181.003.265.037.085.034.159.087.218.156s.101.151.121.239c.02.089.019.181-.004.268l-.4 2.1c-.061.195-.18.366-.341.491s-.356.198-.559.209z" fill="#4d61fc"/><path d="m871.45 648.68h-108.7l.1-.2h108.6z" fill="#4d61fc" opacity=".04"/><path d="m852.35 713.38h-27.6c-.137.004-.273-.024-.398-.081s-.235-.142-.321-.248c-.087-.107-.149-.231-.18-.365-.031-.133-.032-.272-.001-.406l9-47.1c.062-.302.224-.575.46-.774s.531-.314.84-.326h27.6c.137-.003.273.025.397.082.125.057.235.142.322.248s.148.231.179.364c.032.134.032.273.002.406l-9 47.1c-.063.303-.225.575-.46.775-.236.199-.532.314-.84.325z" fill="#fff"/><path d="m850.75 709.88h-8c-.2 0-.3-.2-.3-.4l.4-2c.007-.104.052-.201.125-.275.074-.074.171-.118.275-.125h8c.2 0 .3.2.3.4l-.4 2c-.007.104-.051.202-.125.275-.073.074-.171.118-.275.125z" fill="#4d61fc"/><path d="m851.35 692.58h-17.9c-.052-.005-.1-.027-.136-.064-.037-.036-.059-.085-.064-.136l.2-.8c0-.1.2-.2.3-.2h17.9c.052.004.1.027.136.063.037.037.059.085.064.137l-.2.8c0 .1-.2.2-.3.2z" fill="#3f4249"/><path d="m852 696.18h-20.2c-.2 0-.3-.2-.3-.4.007-.104.051-.202.125-.275.073-.074.171-.118.275-.125h20.2c.2 0 .3.2.3.4-.007.104-.051.201-.125.275-.074.073-.171.118-.275.125z" fill="#b1b5ba"/><path d="m851.35 699.281h-20.2c-.2 0-.3-.201-.3-.401.007-.103.051-.201.125-.275.073-.073.171-.118.275-.125h20.2c.2 0 .3.2.3.4.004.054-.003.108-.021.159-.019.05-.048.096-.086.134-.039.039-.084.068-.135.086-.051.019-.105.026-.158.022z" fill="#b1b5ba"/><path d="m846.15 702.48h-11.1c-.2 0-.3-.2-.3-.4.007-.104.051-.202.125-.275.073-.074.171-.118.275-.125h11.1c.2 0 .3.2.3.4.005.053-.003.107-.021.158-.019.051-.048.097-.086.135s-.084.067-.135.086c-.05.018-.104.025-.158.021z" fill="#b1b5ba"/><path d="m850.769 682.372c3.841-3.492 4.605-8.907 1.707-12.095-2.898-3.187-8.361-2.939-12.202.553-3.841 3.493-4.605 8.908-1.707 12.095s8.361 2.94 12.202-.553z" fill="#4d61fc" opacity=".3"/><path d="m828.45 707.68.1.4h.1l.4.1c.1 0 .1.1 0 .2l-.4.3v.5c0 .027-.01.052-.029.071s-.044.03-.071.03l-.4-.201h-.1l-.4.201c-.1 0-.1-.001-.1-.101l.2-.399v-.101l-.3-.3c0-.1 0-.1.1-.2l.5-.1h.1l.3-.4c-.2-.1-.1-.1 0 0z" fill="#4d61fc"/><path d="m830.65 707.68.1.4h.1l.4.1c.1 0 .1.1 0 .2l-.4.3v.5c0 .027-.01.052-.029.071s-.044.03-.071.03l-.4-.201h-.1l-.4.201c-.1 0-.1-.001-.1-.101l.2-.399v-.101l-.3-.3c0-.1 0-.1.1-.2l.5-.1h.1l.3-.4c-.1-.1 0-.1 0 0z" fill="#4d61fc"/><path d="m833 707.68.1.4h.1l.4.1c.1 0 .1.1 0 .2l-.4.3v.5c0 .026-.011.052-.029.07-.019.019-.045.03-.071.03l-.4-.2h-.1l-.4.2c-.1 0-.1 0-.1-.1l.2-.4v-.1l-.3-.3c0-.1 0-.1.1-.2l.5-.1h.1z" fill="#4d61fc"/><path d="m835.15 707.68.1.4h.1l.4.1c.1 0 .1.1 0 .2l-.4.3v.5c0 .027-.01.052-.029.071s-.044.03-.071.03l-.4-.201h-.1l-.4.201c-.1 0-.1-.001-.1-.101l.2-.399v-.101l-.3-.3c0-.1 0-.1.1-.2l.5-.1h.1l.3-.4c-.1-.1 0-.1 0 0z" fill="#4d61fc"/><path d="m837.45 707.68.1.4h.1l.4.1c.1 0 .1.1 0 .2l-.4.3v.5c0 .027-.01.052-.029.071s-.044.03-.071.03l-.4-.201h-.1l-.4.201c-.1 0-.1-.001-.1-.101l.2-.399v-.101l-.3-.3c0-.1 0-.1.1-.2l.5-.1h.1l.3-.4c-.1-.1 0-.1 0 0z" fill="#d9dcde"/><path d="m818.55 713.38h-27.55c-.137.004-.273-.024-.398-.081s-.235-.142-.321-.248c-.087-.107-.149-.231-.18-.365-.031-.133-.032-.272-.001-.406l9-47.1c.062-.302.224-.575.46-.774s.531-.314.84-.326h27.6c.137-.003.273.025.397.082.125.057.235.142.322.248s.148.231.179.364c.032.134.032.273.002.406l-9 47.1c-.065.311-.234.59-.48.79-.246.201-.553.31-.87.31z" fill="#fff"/><path d="m817.05 709.88h-8c-.2 0-.3-.2-.3-.4l.4-2c.007-.104.051-.201.125-.275s.171-.118.275-.125h8c.2 0 .3.2.3.4l-.4 2c-.007.104-.051.202-.125.275-.074.074-.171.118-.275.125z" fill="#4d61fc"/><path d="m817.55 692.58h-17.9c-.051-.005-.1-.027-.136-.064-.037-.036-.059-.085-.064-.136l.2-.8c0-.1.2-.2.3-.2h17.9c.052.004.1.027.137.063.036.037.059.085.063.137l-.2.8c0 .1-.1.2-.3.2z" fill="#3f4249"/><path d="m818.15 696.18h-20.15c-.2 0-.3-.2-.3-.4.007-.104.052-.202.125-.275.074-.074.171-.118.275-.125h20.2c.2 0 .3.2.3.4-.008.112-.059.217-.143.292s-.194.113-.307.108z" fill="#b1b5ba"/><path d="m817.55 699.281h-20.2c-.2 0-.3-.201-.3-.401.007-.103.051-.201.125-.275.073-.073.171-.118.275-.125h20.2c.2 0 .3.2.3.4.004.054-.003.108-.021.159-.019.05-.048.096-.086.134-.038.039-.084.068-.135.086-.05.019-.105.026-.158.022z" fill="#b1b5ba"/><path d="m812.45 702.48h-11.1c-.2 0-.3-.2-.3-.4.007-.104.051-.202.125-.275.073-.074.171-.118.275-.125h11.1c.2 0 .3.2.3.4-.1.3-.2.4-.4.4z" fill="#b1b5ba"/><path d="m816.989 682.374c3.841-3.492 4.605-8.907 1.707-12.095-2.898-3.187-8.361-2.939-12.202.553-3.841 3.493-4.606 8.908-1.707 12.095 2.898 3.187 8.361 2.94 12.202-.553z" fill="#b1b5ba"/><path d="m804.05 708.68v.5c0 .013-.003.026-.008.038s-.012.023-.021.032c-.01.01-.021.017-.033.022s-.025.008-.038.008l-.4-.2-.3-.1.5-1.2.1-.1h.1l.1.4h.1l.4.1c.1 0 .1.1 0 .2z" fill="#d9dcde"/><path d="m794.75 707.68.1.4h.1l.4.1c.1 0 .1.1 0 .2l-.4.3v.5c0 .027-.011.052-.029.071-.019.019-.045.03-.071.03l-.4-.201h-.1l-.4.201c-.1 0-.1-.001-.1-.101l.2-.399v-.101l-.3-.3c0-.1 0-.1.1-.2l.5-.1h.1l.3-.4c-.1-.1 0-.1 0 0z" fill="#4d61fc"/><path d="m797.05 707.68.1.4h.1l.4.1c.1 0 .1.1 0 .2l-.4.3v.5c0 .027-.011.052-.029.071-.019.019-.045.03-.071.03l-.4-.201h-.1l-.4.201c-.1 0-.1-.001-.1-.101l.2-.399v-.101l-.3-.3c0-.1 0-.1.1-.2l.5-.1h.1l.3-.4c-.05-.1 0-.1 0 0z" fill="#4d61fc"/><path d="m799.25 707.68.1.4h.1l.4.1c.1 0 .1.1 0 .2l-.4.3v.5c0 .027-.011.052-.029.071-.019.019-.045.03-.071.03l-.4-.201h-.1l-.4.201c-.1 0-.1-.001-.1-.101l.2-.399v-.101l-.3-.3c0-.1 0-.1.1-.2l.5-.1h.1l.3-.4c-.1-.1 0-.1 0 0z" fill="#4d61fc"/><path d="m801.55 707.68.1.4h.1l.4.1c.1 0 .1.1 0 .2l-.4.3v.5c0 .027-.011.052-.029.071-.019.019-.045.03-.071.03l-.4-.201h-.1l-.4.201c-.1 0-.1-.001-.1-.101l.2-.399v-.101l-.3-.3c0-.1 0-.1.1-.2l.5-.1h.1l.3-.4c-.1-.1 0-.1 0 0z" fill="#4d61fc"/><path d="m803.75 707.68-.3 1.4-.4.2c-.1 0-.1 0-.1-.1l.2-.4v-.1l-.3-.3c0-.1 0-.1.1-.2l.5-.1h.1z" fill="#4d61fc"/><path d="m749.81 1032.69-56.34-1.39-2.71-31.08h-.16l-8.09-78.33-.14-1.29-21.32-206.24c-.068-.908-.477-1.758-1.144-2.377-.668-.62-1.545-.964-2.456-.964s-1.788.344-2.456.964c-.668.619-1.076 1.469-1.144 2.377l-23.06 206-8.93 79.83-1.46 16.7-1.25 14.38-31.31.77 2.45-14.9 1.25-12.09.79-17.62 1.86-65.71v-.89l7.64-269.25 120.73-2-1.47 270.52-.42 75.74.41 9.24c.124 3.1 1.215 6.08 3.12 8.52.892 1.15 1.947 2.16 3.13 3z" fill="#fc9d9d"/><path d="m724.2 1013.6-13 11-.63-17.81-2.4-68.4c-.069-2.005-.729-3.944-1.896-5.575-1.167-1.632-2.789-2.882-4.664-3.595l-19.13-7.3-.52-.2-.1-1.08h.48l38.72-.5-.42 75.74.41 9.24c0 .36 0 .72.08 1.08.328 2.7 1.39 5.26 3.07 7.4z" fill="#000" opacity=".15"/><path d="m589.09 1012.16.86-.87c3.243-3.14 7.598-4.88 12.115-4.82 4.517.05 8.828 1.89 11.995 5.11l.49.58c1.583 1.66 2.474 3.86 2.49 6.15v3.69c-.004 2.12.334 4.23 1 6.24l3 9.89c.768 2.39 1.159 4.89 1.16 7.4v1.25c-.044.95-.462 1.85-1.164 2.5s-1.631.99-2.586.96h-34.54c-.474.02-.948-.05-1.394-.21-.447-.16-.856-.41-1.205-.74-.349-.32-.631-.71-.828-1.14-.198-.43-.307-.9-.323-1.37v-.48c.002-2.91.488-5.8 1.44-8.55l3.46-9.69c.806-2.22 1.232-4.56 1.26-6.92l.09-2.79c.114-2.32 1.066-4.52 2.68-6.19z" fill="#3f4249"/><path d="m580.16 1046.26v.48c.044.95.463 1.85 1.165 2.5s1.631.99 2.585.96h34.48c.474.02.948-.05 1.393-.22.446-.16.855-.41 1.204-.73s.63-.71.828-1.14.309-.9.325-1.37v-1.25c.017-.49-.017-.97-.1-1.45h-41.88z" fill="#000" opacity=".5"/><path d="m722.6 649.61v356.47l-1.44.08-10.56.6-19.9 1.13-8.7-86.2-.1-1.08-20.85-206.25c-.078-.907-.498-1.75-1.173-2.361-.675-.61-1.557-.942-2.467-.929-.888 0-1.744.332-2.4.93-.663.618-1.076 1.458-1.16 2.36l-30.85 293.53-32.66-1.61 11.58-354.67z" fill="#4d61fc"/><path d="m609.06 1007.21 27.06-274.78c1-12.2 8.41-21.36 17.1-21.36h4.07c-1.82 0-3.38 2-3.55 4.64l-30.74 292.19z" fill="#000" opacity=".2"/><path d="m722.61 653.939v352.151l-12 .68-6-352.791z" fill="#000" opacity=".2"/><path d="m689.57 1021.32v22c-.002.84.162 1.68.484 2.46.321.78.794 1.49 1.391 2.09.596.59 1.305 1.06 2.085 1.39.78.32 1.616.48 2.46.48h74.66c.714 0 1.398-.29 1.903-.79.506-.5.792-1.19.797-1.9-.011-2.55-.821-5.04-2.316-7.11-1.496-2.07-3.602-3.63-6.024-4.44l-16.84-5.55-21.35-16.58c-1.073-.84-2.403-1.28-3.765-1.25s-2.67.53-3.705 1.42l-9.46 8.08c-.682.57-1.498.96-2.372 1.14-.874.17-1.777.13-2.628-.14l-12-3.73c-.382-.12-.785-.14-1.179-.08-.394.07-.767.23-1.089.46-.322.24-.585.55-.767.9-.183.36-.28.75-.285 1.15z" fill="#3f4249"/><path d="m696 1049.7h74.66c.713 0 1.397-.29 1.903-.79.505-.5.792-1.19.797-1.9.018-.91-.1-1.82-.35-2.7h-83.34c.24 1.5 1.01 2.87 2.171 3.86 1.16.99 2.635 1.53 4.159 1.53z" fill="#000"/><path d="m726.37 1022.1c-.159-.01-.311-.07-.43-.17-.068-.07-.122-.14-.159-.23-.036-.08-.055-.18-.055-.27s.019-.19.055-.27c.037-.09.091-.17.159-.23l4.51-4.86c.133-.13.313-.21.5-.21.188 0 .367.08.5.21s.207.31.207.5-.074.37-.207.5l-4.52 4.86c-.171.1-.363.16-.56.17z" fill="#fff"/><path d="m729.941 1024.88c-.163 0-.32-.06-.44-.17-.068-.06-.122-.14-.159-.23-.037-.08-.056-.18-.056-.27s.019-.19.056-.27c.037-.09.091-.17.159-.23l4.51-4.86c.065-.07.143-.12.229-.15.086-.04.178-.06.271-.06.092 0 .184.02.27.06.086.03.164.08.23.15.065.07.117.14.153.23.035.08.054.18.054.27s-.019.18-.054.27c-.036.09-.088.16-.153.23l-4.51 4.86c-.17.1-.362.16-.56.17z" fill="#fff"/><path d="m733.49 1027.66c-.161 0-.314-.07-.43-.18-.069-.06-.124-.14-.162-.23-.038-.08-.057-.18-.057-.27s.019-.19.057-.27c.038-.09.093-.17.162-.23l4.51-4.86c.066-.07.144-.12.229-.15.086-.04.178-.06.271-.06s.185.02.271.06c.085.03.163.08.229.15s.118.14.153.23c.036.09.054.18.054.27s-.018.19-.054.27c-.035.09-.087.16-.153.23l-4.52 4.86c-.075.07-.164.12-.26.15-.097.03-.199.04-.3.03z" fill="#fff"/><path d="m632.76 450.189h36.89c.403.002.8.108 1.15.307.35.2.643.487.85.833l3.2 5.26 35.29 4.56c8.044 1.038 15.472 4.855 21 10.79l47.56 51 52.68-51.73 14.52 19.33-56.48 66.49c-3.319 3.652-7.886 5.928-12.801 6.38-4.914.452-9.819-.954-13.749-3.94l-40.42-27v121.47h-120.8s-12.06-189.27-7.74-190.14l33.65-6.45 3.11-5.9c.202-.379.503-.696.871-.918s.789-.34 1.219-.342z" fill="#fc9d9d"/><path d="m620.59 458.74-25.87 4.54c-2.495.437-4.871 1.388-6.979 2.792-2.107 1.405-3.899 3.233-5.261 5.368l-58 85.19c-2.803 4.111-3.917 9.142-3.111 14.052.806 4.909 3.471 9.32 7.441 12.318l38.62 29.17 16.68-17.72-24.41-25.73 46.57-56.2 21.57-1z" fill="#fc9d9d"/><path d="m567.43 612.151 16.47 12.53s.32 7.33 12.37 12.9l3.41 12.26c.78 3.76 6 3.44 6-.3l5.57-29.21-27.1-25.9z" fill="#fc9d9d"/><path d="m587.079 597.33 5.88 5.67-14.35 17.4-6.42-4.85z" fill="#3f4249"/><path d="m586.199 596.61 7.92 7.5c.125.149.283.267.461.345.179.077.373.112.567.102.194-.011.383-.067.552-.164.169-.096.312-.231.42-.393.207-.256.314-.577.303-.906s-.14-.642-.363-.884l-7.92-7.49c-.26-.197-.58-.298-.905-.288-.326.011-.639.134-.885.348-.154.093-.283.22-.378.373-.095.152-.152.325-.166.504-.015.179.013.358.082.524.068.166.175.313.312.429z" fill="#000"/><path d="m675.781 411.15c-.48.07-.65.59-.58 1.07s.58.65 1.06.58l3.81-.79c.451-.111.876-.311 1.25-.587s.69-.624.929-1.022c.239-.399.396-.842.463-1.302.068-.46.043-.929-.072-1.379-.154-.577-.446-1.108-.853-1.545-.406-.438-.913-.769-1.477-.965-.715-.271-1.335-.746-1.781-1.367-.447-.621-.7-1.359-.729-2.123 0-.68-.08-1.23-.12-1.38-2.06-7.94-1.9 10.81-1.9 10.81z" fill="#fc9d9d"/><path d="m682.641 407.72c-.249-.923-.848-1.713-1.67-2.2 0 .1.08.21.11.31.113.45.137.918.069 1.378-.067.46-.225.902-.464 1.3-.238.399-.554.746-.927 1.023-.373.276-.798.476-1.248.589l-2.73.57v.46c-.48.07-.65.59-.58 1.07s.58.65 1.06.58l3.81-.79c.451-.111.876-.311 1.25-.587s.69-.624.929-1.023.396-.841.463-1.301c.068-.46.043-.929-.072-1.379z" fill="#000" opacity=".15"/><path d="m676.421 385.689 3.41 39.57c.238 2.771-.494 5.538-2.07 7.829s-3.898 3.963-6.57 4.731l-2.48.72 2.08 18.19-17.62-2.37-20.28 1.64 2.25-48.2 22.51-21.55z" fill="#fc9d9d"/><path d="m653.581 411.36.49 1.24c1.708.505 3.444.909 5.2 1.21l-6.51 8.09z" fill="#000" opacity=".15"/><path d="m681.601 406.08c-.214 0-.421-.073-.587-.208-.165-.135-.279-.323-.323-.532l-3.06-13.54c-.029-.121-.033-.246-.013-.369.021-.123.066-.24.132-.345.067-.105.154-.195.256-.266s.218-.121.339-.146c.122-.025.248-.026.37-.002s.238.072.341.141c.103.07.191.16.259.264s.114.221.136.343l3.07 13.58c.05.242.003.493-.132.699s-.347.351-.588.401c-.067.003-.135-.003-.2-.02z" fill="#21252b"/><path d="m679.677 396.675-20.969 4.656.405 1.826 20.97-4.657z" fill="#21252b"/><path d="m668.711 438.54-7.73-.16c-.53-.009-1.054.112-1.527.351-.472.24-.879.591-1.185 1.024s-.501.934-.569 1.46c-.067.525-.005 1.059.181 1.555l2.82 7.45h9.35z" fill="#000" opacity=".15"/><path d="m653.581 411.36-.821 10.54-18.6 6.1s-11.259-3.64-13.639-18.18l35.859-16.82 2.31 8.4z" fill="#21252b"/><path d="m660.69 408c1 3.52 2.16 6.09-2.52 6.12-8.91 0-10.7-11.73-5.74-14.43.519-.34 1.107-.563 1.722-.652.615-.088 1.241-.041 1.835.14.595.18 1.142.489 1.604.904s.827.926 1.069 1.498z" fill="#fc9d9d"/><path d="m658.091 406.58c-.131-1.145-.532-2.241-1.17-3.2-.527-.7-1.28-1.194-2.13-1.4-.44-.046-.885.002-1.306.14-.42.137-.807.362-1.134.66-.105.13-.17.289-.186.456s.017.335.096.484c.18.3.49.28.79.1.214-.22.476-.388.766-.49.289-.103.599-.137.904-.1.47 0 .81.41 1.33 1 .552.761.897 1.654 1 2.59l.24 1.07c0 .31.34.45.65.42s.45-.34.43-.65l-.24-1.08" fill="#000" opacity=".3"/><path d="m677.59 373.9c0-7.12-5.16-12.89-11.54-12.89-.874.001-1.744.116-2.59.34-1.342-1.856-3.12-3.353-5.176-4.362-2.056-1.008-4.329-1.497-6.618-1.423s-4.525.709-6.512 1.848-3.664 2.749-4.884 4.687c-2.619-2.567-6.142-4.003-9.81-4-7.55 0-13.67 5.82-13.67 13 .002 2.027.503 4.023 1.46 5.81-5.27 1.21-9.1 4.87-9.1 9.2 0 3.77 2.92 7 7.16 8.61-1.031.628-1.886 1.509-2.485 2.558-.598 1.05-.92 2.234-.935 3.442.041 1.651.638 3.241 1.694 4.511s2.51 2.147 4.126 2.489c-.004.077-.004.153 0 .23-.004 1.201.442 2.36 1.249 3.25.808.889 1.919 1.444 3.115 1.556 1.196.111 2.39-.229 3.348-.953.958-.725 1.61-1.782 1.828-2.963.717.267 1.475.406 2.24.41 3.52 0 6.52-2.87 7.78-6.93.45 0 .9.05 1.37.05 5.8 0 10.59-2.84 11.44-6.54.636.097 1.277.153 1.92.17 6.15 0 11.13-3.95 11.25-8.85 1.714 1.337 3.827 2.059 6 2.05 2.446.054 4.814-.863 6.587-2.549 1.772-1.686 2.805-4.005 2.873-6.451-.003-2.1-.758-4.129-2.13-5.72 0-.2.01-.39.01-.58z" fill="#21252b"/><path d="m620.59 458.74-25.27 4.43c-2.687.479-5.246 1.511-7.513 3.031s-4.194 3.495-5.657 5.799l-32.52 48 29.16 25.77 27.48-33.16 21.57-1z" fill="#3f4249"/><path d="m593 463.82 34.69-6.44 2.73-5.68c.278-.582.716-1.073 1.264-1.413s1.181-.516 1.826-.507l36 .42c.583.006 1.154.167 1.654.465.501.299.914.725 1.196 1.235l2.64 4.73 36.33 4.74c8.018 1.048 15.405 4.902 20.85 10.88l26.62 29.24-29.45 35.6-6.75-4.54v121.45h-120.84l-7.67-107.39s-10.48-81.05-1.09-82.79z" fill="#3f4249"/><path d="m717.62 518.77c-.809-.543-1.749-.861-2.722-.92s-1.944.142-2.813.583c-.869.442-1.605 1.107-2.131 1.927-.527.82-.825 1.766-.864 2.74l-.54 13.15-4 117.73h18v-121.43l6.84 4.44 5.5-6.65z" fill="#000" opacity=".3"/><path d="m845.92 490.57-33.25-.94 19.82-19.5 19.2-21.61 14.19-14.85c.194-.267.441-.491.726-.657s.602-.271.93-.308c.327-.038.659-.006.974.091.315.098.607.26.856.477.249.216.45.482.591.78s.218.623.227.952c.009.33-.051.658-.176.964-.124.305-.311.581-.548.811-2.62 3-6.73 7.91-11 12.78.619-.246 1.288-.335 1.949-.262.662.073 1.295.308 1.845.683.549.375.999.879 1.308 1.468.31.589.471 1.245.468 1.911.001.525-.105 1.046-.31 1.53.622-.332 1.319-.497 2.023-.479s1.392.218 1.996.58c.604.363 1.104.875 1.451 1.488.348.614.53 1.306.53 2.011-.003.417-.067.831-.19 1.23.731-.345 1.548-.468 2.348-.352.8.115 1.548.464 2.152 1.002 2.42 2.19-.48 6.84-2 8.74-5.57 7.09-26.11 21.46-26.11 21.46z" fill="#fc9d9d"/><path d="m872.13 459.41c-1 8.22-25.28 25.43-25.28 25.43l-58.77 65.49c-6.88 7.57-17.35 5.44-25.49-.75 0 0-39-26.8-40.59-27.88l.47 10.81c1.62 1.09 43.16 28.73 43.16 28.73 8.48 4.2 17.38 2.62 23.81-4.18l56.48-66.49s20.83-14.43 26.29-21.64c1.63-2.16 4.18-6.48 1.84-8.56-.539-.492-1.203-.824-1.92-.96z" fill="#000" opacity=".15"/><path d="m593 463.82c-3.24.79-4.23 1.64-7.19 4 .08 9-1.82 44.68-.52 58.2l-31 34.27c-.283.308-.44.712-.44 1.13 0 .419.157.822.44 1.13l5.48 6.19 28-33.82 4.41-5.33s-8.57-64.03.82-65.77z" fill="#000" opacity=".15"/><path d="m462 813.48c-.47-3.095-1.716-6.02-3.622-8.503s-4.41-4.443-7.278-5.697l1.3-1.5h-8.9c-.7 0-1.3.1-2 .1l-93.6 11.9c-5.093.63-9.878 2.779-13.731 6.168-3.853 3.39-6.596 7.861-7.869 12.832l-57.7 221.7h13.9l56.8-218.2c.613-2.344 1.911-4.452 3.727-6.055 1.817-1.603 4.071-2.628 6.473-2.945l93.6-11.9c1.284-.162 2.581.187 3.61.973s1.708 1.945 1.89 3.227l35.8 235.1h13.6z" fill="#b2b6bb"/><path d="m291.05 1050.58h-13.9l57.7-221.7c1.29-4.962 4.037-9.425 7.887-12.811 3.85-3.387 8.627-5.542 13.713-6.189l93.6-11.9c4.772-.65 9.607.616 13.449 3.52 3.841 2.905 6.377 7.212 7.051 11.98l36.1 237.1h-13.6l-35.8-235c-.181-1.282-.86-2.441-1.889-3.227s-2.326-1.135-3.611-.973l-93.6 11.9c-2.411.292-4.677 1.309-6.498 2.916-1.821 1.606-3.112 3.728-3.702 6.084z" fill="#868a91"/><path d="m612.15 896.281h-223.15c-2.359-.006-4.62-.945-6.288-2.613s-2.607-3.929-2.612-6.288c.005-2.358.944-4.619 2.612-6.287s3.929-2.607 6.288-2.613h223.2c2.358.006 4.619.945 6.287 2.613s2.607 3.929 2.613 6.287c-.003 1.173-.237 2.333-.688 3.415s-1.111 2.064-1.943 2.891c-.831.826-1.817 1.481-2.901 1.926-1.085.445-2.246.672-3.418.669z" fill="#3f4249"/><path d="m421 896.281h-126.35c-2.359-.006-4.619-.945-6.287-2.613s-2.608-3.929-2.613-6.288c.005-2.358.945-4.619 2.613-6.287s3.928-2.607 6.287-2.613h126.35c2.359.006 4.619.945 6.287 2.613s2.608 3.929 2.613 6.287c-.005 2.359-.945 4.62-2.613 6.288s-3.928 2.607-6.287 2.613z" fill="#61656d"/><path d="m424.85 686.48c-.524-2.093-1.735-3.95-3.439-5.274-1.705-1.324-3.804-2.037-5.961-2.026h-130.6c-1.46-.003-2.902.326-4.216.962-1.315.635-2.468 1.56-3.373 2.706s-1.538 2.482-1.852 3.908-.3 2.904.041 4.324l43 187.4h153.7z" fill="#3f4249"/><path d="m405.65 686.48c-.523-2.093-1.734-3.95-3.439-5.274-1.704-1.324-3.803-2.037-5.961-2.026h-130.6c-1.46-.003-2.901.326-4.216.962-1.314.635-2.467 1.56-3.372 2.706s-1.538 2.482-1.852 3.908-.3 2.904.04 4.324l45 187.4h151.75z" fill="#61656d"/><path d="m300.85 876.58 137.9.1-.5 1.7h-137z" fill="#000" opacity=".3"/><path d="m586.85 813.48c-.469-3.095-1.715-6.02-3.621-8.503s-4.41-4.443-7.279-5.697l1.3-1.5h-8.9c-.7 0-1.3.1-2 .1l-93.6 11.9c-5.093.63-9.878 2.779-13.731 6.168-3.853 3.39-6.595 7.861-7.869 12.832l-57.7 221.7h13.9l56.8-218.4c.613-2.344 1.911-4.452 3.728-6.055s4.07-2.628 6.472-2.945l93.6-11.9c1.285-.162 2.582.187 3.611.973s1.708 1.945 1.889 3.227l35.8 235.1h13.6z" fill="#b2b6bb"/><path d="m416 1050.58h-13.9l57.7-221.7c1.29-4.963 4.037-9.425 7.887-12.812 3.85-3.386 8.626-5.542 13.713-6.188l93.6-11.88c4.771-.65 9.607.615 13.448 3.52 3.841 2.904 6.377 7.211 7.052 11.98l36.1 237.1h-13.6l-35.8-235.1c-.182-1.282-.861-2.441-1.89-3.227s-2.326-1.136-3.61-.973l-93.6 11.9c-2.412.292-4.678 1.308-6.499 2.915s-3.112 3.729-3.701 6.085z" fill="#868a91"/><path d="m1369.65 1051.48h-1139.2c-.105 0-.21-.02-.307-.06-.098-.04-.187-.1-.261-.17-.075-.08-.134-.16-.173-.26-.04-.1-.06-.2-.059-.31.014-.21.103-.4.25-.55s.343-.24.55-.25h1139.2c.11 0 .21.02.31.06.09.04.18.1.26.17.07.08.13.17.17.26.04.1.06.2.06.31 0 .1-.02.21-.06.31-.04.09-.1.18-.17.26-.08.07-.17.13-.26.17-.1.04-.2.06-.31.06z" fill="#dadddf"/></svg>